<?xml version="1.0" encoding="UTF-8"?>
<svg version="1.1" xmlns="http://www.w3.org/2000/svg" width="200" height="200">
<path d="M0 0 C-0.10699219 0.88042969 -0.21398437 1.76085938 -0.32421875 2.66796875 C-0.44410156 3.82941406 -0.56398437 4.99085937 -0.6875 6.1875 C-0.81511719 7.33605469 -0.94273438 8.48460937 -1.07421875 9.66796875 C-0.98821723 13.52898417 -0.37316874 14.99098225 2 18 C4.49121326 20.26739343 4.49121326 20.26739343 7.3125 22.375 C20.31858352 32.71449232 20.31858352 32.71449232 21.30297852 40.35009766 C21.32803467 41.19620605 21.35309082 42.04231445 21.37890625 42.9140625 C21.41306641 43.83960938 21.44722656 44.76515625 21.48242188 45.71875 C21.50884766 46.6778125 21.53527344 47.636875 21.5625 48.625 C21.62231481 50.53398327 21.68592845 52.44285248 21.75390625 54.3515625 C21.77783447 55.19541504 21.8017627 56.03926758 21.82641602 56.90869141 C21.87441425 59.05857489 21.87441425 59.05857489 23 61 C23.268125 59.741875 23.53625 58.48375 23.8125 57.1875 C25.1947065 51.72633446 25.1947065 51.72633446 28 50 C29.32 50 30.64 50 32 50 C32.09796875 50.58007812 32.1959375 51.16015625 32.296875 51.7578125 C33.52031197 58.149216 35.61894975 62.18467015 39.86328125 67.203125 C48.51434532 77.56485145 52.95560911 87.45919925 52 101 C50.03192502 112.97095148 42.49528696 121.66303227 33.10546875 128.859375 C24.6589353 134.68163957 16.1428448 136.18374724 6 135 C-6.71991142 132.26395068 -21.16192383 123.35804221 -29 113 C-34.7695315 103.18812159 -36.91176584 95.40315144 -36 84 C-34.69165953 79.17588207 -32.76527478 75.14791217 -30 71 C-29.01 71 -28.02 71 -27 71 C-26.34 73.64 -25.68 76.28 -25 79 C-24.90525391 78.00033203 -24.90525391 78.00033203 -24.80859375 76.98046875 C-23.49972714 67.12952535 -18.81209166 60.47430906 -12.6875 52.875 C-9.64447644 48.80392794 -7.8189462 45.17184118 -8 40 C-9.28435132 35.48058805 -11.07184227 31.27740738 -13 27 C-15.41097792 21.46700999 -15.91116493 16.73349479 -14 11 C-6.66666667 0 -6.66666667 0 0 0 Z M-24 80 C-23 82 -23 82 -23 82 Z " fill="#FF6C40" transform="translate(97,37)"/>
<path d="M0 0 C2.5152204 0.3593172 4.09767638 1.06240435 6.25 2.4375 C8.93724664 6.37239687 8.47168077 10.36824946 8 15 C7.67 15.99 7.34 16.98 7 18 C6.04481219 25.37550079 6.96079454 30.16747319 11.296875 36.22265625 C13.08042561 38.0839304 14.6375516 39.00879882 17 40 C17 37.69 17 35.38 17 33 C23.75334053 36.81763078 31.96441029 42.62474242 35.4375 49.8046875 C37.45815765 57.69086527 37.1260945 65.81336683 33.5 73.125 C29.67629323 79.17995213 25.27209374 81.65266728 18.8125 84.3125 C8.98489809 86.08469051 -0.03116738 85.63643042 -9 81 C-14.77557396 76.4799856 -19.44747544 69.19806841 -21 62 C-21.14776031 58.32637295 -21.11767437 54.67405528 -21 51 C-20.01 51.33 -19.02 51.66 -18 52 C-18 52.66 -18 53.32 -18 54 C-15.69 53.34 -13.38 52.68 -11 52 C-10.94577053 50.5629191 -10.90710277 49.12524538 -10.875 47.6875 C-10.85179688 46.88699219 -10.82859375 46.08648437 -10.8046875 45.26171875 C-10.84182678 42.71611424 -10.84182678 42.71611424 -13 40 C-13.3359375 36.63671875 -13.3359375 36.63671875 -13.375 32.6875 C-13.40335937 31.39199219 -13.43171875 30.09648438 -13.4609375 28.76171875 C-12.73856126 22.86639403 -9.61488209 19.31603577 -5.375 15.375 C-2.32247853 12.53575514 -0.19479462 10.13494906 0.1953125 5.859375 C0.17210938 5.16328125 0.14890625 4.4671875 0.125 3.75 C0.08375 2.5125 0.0425 1.275 0 0 Z " fill="#FFBB40" transform="translate(101,87)"/>
<path d="M0 0 C3 1 3 1 4 3 C3.87402719 7.93231984 3.16277845 12.53025787 1 17 C0.01 17 -0.98 17 -2 17 C-3.27947184 10.34058028 -2.81115003 6.18453008 0 0 Z " fill="#FF6C40" transform="translate(127,65)"/>
<path d="M0 0 C0.29058436 4.9399341 0.21320034 8.09825673 -3 12 C-5.1875 12.8125 -5.1875 12.8125 -7 13 C-7.9454209 10.01828792 -8.44930624 7.93403497 -7.05859375 5.04296875 C-3.61787169 0 -3.61787169 0 0 0 Z " fill="#FF6C40" transform="translate(76,91)"/>
<path d="M0 0 C0.66 0.66 1.32 1.32 2 2 C0.35 2.33 -1.3 2.66 -3 3 C-2.01 2.01 -1.02 1.02 0 0 Z " fill="#FF6C40" transform="translate(99,10)"/>
</svg>
