<?xml version="1.0" encoding="UTF-8" standalone="no"?>
<!-- Created with Inkscape (http://www.inkscape.org/) -->

<svg
   width="255.99998"
   height="255.99998"
   viewBox="0 0 67.733329 67.733329"
   version="1.1"
   id="svg1"
   xml:space="preserve"
   xmlns="http://www.w3.org/2000/svg"
   xmlns:svg="http://www.w3.org/2000/svg"><defs
     id="defs1" /><g
     id="layer2"
     style="display:inline"><g
       id="g1"
       transform="matrix(0.47783452,0,0,0.4906242,-16.180253,-17.124572)"><path
         d="M 0,0 C -0.10699219,0.88042969 -0.21398437,1.7608594 -0.32421875,2.6679688 -0.44410156,3.8294141 -0.56398437,4.9908594 -0.6875,6.1875 -0.81511719,7.3360547 -0.94273438,8.4846094 -1.0742187,9.6679688 -0.98821723,13.528984 -0.37316874,14.990982 2,18 c 2.4912133,2.267393 2.4912133,2.267393 5.3125,4.375 13.006084,10.339492 13.006084,10.339492 13.990479,17.975098 0.02506,0.846108 0.05011,1.692216 0.07593,2.563964 0.03416,0.925547 0.06832,1.851094 0.103516,2.804688 0.02643,0.959063 0.05285,1.918125 0.08008,2.90625 0.05982,1.908983 0.123428,3.817852 0.191406,5.726562 0.02393,0.843853 0.04786,1.687706 0.07251,2.557129 0.048,2.149884 0.048,2.149884 1.173584,4.091309 0.268125,-1.258125 0.53625,-2.51625 0.8125,-3.8125 C 25.194706,51.726334 25.194706,51.726334 28,50 c 1.32,0 2.64,0 4,0 0.09797,0.580078 0.195937,1.160156 0.296875,1.757812 1.223437,6.391404 3.322075,10.426858 7.566406,15.445313 C 48.514345,77.564851 52.955609,87.459199 52,101 50.031925,112.97095 42.495287,121.66303 33.105469,128.85937 24.658935,134.68164 16.142845,136.18375 6,135 c -12.7199114,-2.73605 -27.161924,-11.64196 -35,-22 -5.769531,-9.81188 -7.911766,-17.596849 -7,-29 1.30834,-4.824118 3.234725,-8.852088 6,-13 0.99,0 1.98,0 3,0 0.66,2.64 1.32,5.28 2,8 0.09475,-0.999668 0.09475,-0.999668 0.191406,-2.019531 C -23.499727,67.129525 -18.812092,60.474309 -12.6875,52.875 -9.6444764,48.803928 -7.8189462,45.171841 -8,40 -9.2843513,35.480588 -11.071842,31.277407 -13,27 -15.410978,21.46701 -15.911165,16.733495 -14,11 -6.6666667,0 -6.6666667,0 0,0 Z m -24,80 c 1,2 1,2 1,2 z"
         fill="#ff6c40"
         transform="translate(97,37)"
         id="path1" /><path
         d="M 0,0 C 2.5152204,0.3593172 4.0976764,1.0624043 6.25,2.4375 8.9372466,6.3723969 8.4716808,10.368249 8,15 7.67,15.99 7.34,16.98 7,18 6.0448122,25.375501 6.9607945,30.167473 11.296875,36.222656 13.080426,38.08393 14.637552,39.008799 17,40 c 0,-2.31 0,-4.62 0,-7 6.753341,3.817631 14.96441,9.624742 18.4375,16.804687 C 37.458158,57.690865 37.126094,65.813367 33.5,73.125 29.676293,79.179952 25.272094,81.652667 18.8125,84.3125 8.9848981,86.084691 -0.03116738,85.63643 -9,81 -14.775574,76.479986 -19.447475,69.198068 -21,62 c -0.14776,-3.673627 -0.117674,-7.325945 0,-11 0.99,0.33 1.98,0.66 3,1 0,0.66 0,1.32 0,2 2.31,-0.66 4.62,-1.32 7,-2 0.05423,-1.437081 0.0929,-2.874755 0.125,-4.3125 0.0232,-0.800508 0.04641,-1.601016 0.07031,-2.425781 C -10.841827,42.716114 -10.841827,42.716114 -13,40 c -0.335938,-3.363281 -0.335938,-3.363281 -0.375,-7.3125 -0.02836,-1.295508 -0.05672,-2.591016 -0.08594,-3.925781 C -12.738561,22.866394 -9.6148821,19.316036 -5.375,15.375 -2.3224785,12.535755 -0.19479462,10.134949 0.1953125,5.859375 0.17210938,5.1632812 0.14890625,4.4671875 0.125,3.75 0.08375,2.5125 0.0425,1.275 0,0 Z"
         fill="#ffbb40"
         transform="translate(101,87)"
         id="path2" /></g></g></svg>
