<?xml version="1.0" encoding="UTF-8" standalone="no"?>
<!-- Created with Inkscape (http://www.inkscape.org/) -->

<svg
   width="255.99998"
   height="255.99998"
   viewBox="0 0 67.733329 67.733329"
   version="1.1"
   id="svg1"
   xml:space="preserve"
   xmlns="http://www.w3.org/2000/svg"
   xmlns:svg="http://www.w3.org/2000/svg"><defs
     id="defs1"><style
       id="style1">.cls-1{fill:#00b8f0;}.cls-2{fill:#009fd9;}.cls-3{fill:none;}.cls-3,.cls-6{stroke:#45413c;stroke-linecap:round;stroke-linejoin:round;}.cls-4,.cls-6{fill:#fff;}.cls-5{fill:#f0f0f0;}</style></defs><g
     id="layer2"
     style="display:none"><g
       id="g1"
       transform="matrix(0.47783452,0,0,0.4906242,-16.180253,-17.124572)"><path
         d="M 0,0 C -0.10699219,0.88042969 -0.21398437,1.7608594 -0.32421875,2.6679688 -0.44410156,3.8294141 -0.56398437,4.9908594 -0.6875,6.1875 -0.81511719,7.3360547 -0.94273438,8.4846094 -1.0742187,9.6679688 -0.98821723,13.528984 -0.37316874,14.990982 2,18 c 2.4912133,2.267393 2.4912133,2.267393 5.3125,4.375 13.006084,10.339492 13.006084,10.339492 13.990479,17.975098 0.02506,0.846108 0.05011,1.692216 0.07593,2.563964 0.03416,0.925547 0.06832,1.851094 0.103516,2.804688 0.02643,0.959063 0.05285,1.918125 0.08008,2.90625 0.05982,1.908983 0.123428,3.817852 0.191406,5.726562 0.02393,0.843853 0.04786,1.687706 0.07251,2.557129 0.048,2.149884 0.048,2.149884 1.173584,4.091309 0.268125,-1.258125 0.53625,-2.51625 0.8125,-3.8125 C 25.194706,51.726334 25.194706,51.726334 28,50 c 1.32,0 2.64,0 4,0 0.09797,0.580078 0.195937,1.160156 0.296875,1.757812 1.223437,6.391404 3.322075,10.426858 7.566406,15.445313 C 48.514345,77.564851 52.955609,87.459199 52,101 50.031925,112.97095 42.495287,121.66303 33.105469,128.85937 24.658935,134.68164 16.142845,136.18375 6,135 c -12.7199114,-2.73605 -27.161924,-11.64196 -35,-22 -5.769531,-9.81188 -7.911766,-17.596849 -7,-29 1.30834,-4.824118 3.234725,-8.852088 6,-13 0.99,0 1.98,0 3,0 0.66,2.64 1.32,5.28 2,8 0.09475,-0.999668 0.09475,-0.999668 0.191406,-2.019531 C -23.499727,67.129525 -18.812092,60.474309 -12.6875,52.875 -9.6444764,48.803928 -7.8189462,45.171841 -8,40 -9.2843513,35.480588 -11.071842,31.277407 -13,27 -15.410978,21.46701 -15.911165,16.733495 -14,11 -6.6666667,0 -6.6666667,0 0,0 Z m -24,80 c 1,2 1,2 1,2 z"
         fill="#ff6c40"
         transform="translate(97,37)"
         id="path1" /><path
         d="M 0,0 C 2.5152204,0.3593172 4.0976764,1.0624043 6.25,2.4375 8.9372466,6.3723969 8.4716808,10.368249 8,15 7.67,15.99 7.34,16.98 7,18 6.0448122,25.375501 6.9607945,30.167473 11.296875,36.222656 13.080426,38.08393 14.637552,39.008799 17,40 c 0,-2.31 0,-4.62 0,-7 6.753341,3.817631 14.96441,9.624742 18.4375,16.804687 C 37.458158,57.690865 37.126094,65.813367 33.5,73.125 29.676293,79.179952 25.272094,81.652667 18.8125,84.3125 8.9848981,86.084691 -0.03116738,85.63643 -9,81 -14.775574,76.479986 -19.447475,69.198068 -21,62 c -0.14776,-3.673627 -0.117674,-7.325945 0,-11 0.99,0.33 1.98,0.66 3,1 0,0.66 0,1.32 0,2 2.31,-0.66 4.62,-1.32 7,-2 0.05423,-1.437081 0.0929,-2.874755 0.125,-4.3125 0.0232,-0.800508 0.04641,-1.601016 0.07031,-2.425781 C -10.841827,42.716114 -10.841827,42.716114 -13,40 c -0.335938,-3.363281 -0.335938,-3.363281 -0.375,-7.3125 -0.02836,-1.295508 -0.05672,-2.591016 -0.08594,-3.925781 C -12.738561,22.866394 -9.6148821,19.316036 -5.375,15.375 -2.3224785,12.535755 -0.19479462,10.134949 0.1953125,5.859375 0.17210938,5.1632812 0.14890625,4.4671875 0.125,3.75 0.08375,2.5125 0.0425,1.275 0,0 Z"
         fill="#ffbb40"
         transform="translate(101,87)"
         id="path2" /></g></g><g
     id="layer3"
     style="display:none"><g
       id="g2"
       transform="matrix(1.5655733,0,0,1.5655733,-6.0987958,-3.7542327)"><path
         class="cls-1"
         d="m 44.5,27.88 a 5.53,5.53 0 0 1 -3.7,-1.63 5.58,5.58 0 0 1 -7.9,0 5.59,5.59 0 0 1 -9.54,-3.95 V 21 a 12.09,12.09 0 0 0 3.74,23.5 h 17.4 z"
         id="path1-3" /><path
         class="cls-2"
         d="m 27.09,44.5 a 20.08,20.08 0 0 1 -2.75,-19 5.55,5.55 0 0 1 -1,-3.16 V 21 a 12.09,12.09 0 0 0 3.75,23.5 z"
         id="path2-0" /><path
         class="cls-3"
         d="m 44.5,27.88 a 5.53,5.53 0 0 1 -3.7,-1.63 5.58,5.58 0 0 1 -7.9,0 5.59,5.59 0 0 1 -9.54,-3.95 V 21 a 12.09,12.09 0 0 0 3.74,23.5 h 17.4 z"
         id="path3" /><path
         class="cls-4"
         d="M 27.1,44.5 A 12.09,12.09 0 1 1 28,20.35 c 0.8,-1.13 1.49,-2.36 0.61,-4 a 2.18,2.18 0 0 1 0.13,-2.23 2.15,2.15 0 0 1 2.26,-0.86 2.23,2.23 0 0 0 2.33,-0.63 2.2,2.2 0 0 0 0.31,-2.47 v 0 a 1.5,1.5 0 0 1 0.56,-2 1.74,1.74 0 0 1 1.52,-0.26 l 0.86,0.26 a 2.63,2.63 0 0 0 2,-0.17 l 0.38,-0.2 A 7.11,7.11 0 0 0 37.68,7 20.25,20.25 0 1 0 27.1,44.5 Z"
         id="path4" /><path
         class="cls-5"
         d="M 15.42,34.55 A 20.24,20.24 0 0 1 10.25,18.64 20,20 0 0 1 14.44,8.46 20.23,20.23 0 0 0 27.1,44.46 12.09,12.09 0 0 1 15.42,34.55 Z"
         id="path5" /><path
         class="cls-3"
         d="M 27.1,44.5 A 12.09,12.09 0 1 1 28,20.35 c 0.8,-1.13 1.49,-2.36 0.61,-4 a 2.18,2.18 0 0 1 0.13,-2.23 2.15,2.15 0 0 1 2.26,-0.86 2.23,2.23 0 0 0 2.33,-0.63 2.2,2.2 0 0 0 0.31,-2.47 v 0 a 1.5,1.5 0 0 1 0.56,-2 1.74,1.74 0 0 1 1.52,-0.26 l 0.86,0.26 a 2.63,2.63 0 0 0 2,-0.17 l 0.38,-0.2 A 7.11,7.11 0 0 0 37.68,7 20.25,20.25 0 1 0 27.1,44.5 Z"
         id="path6" /><path
         id="_Path_"
         data-name="&lt;Path&gt;"
         class="cls-3"
         d="m 44.5,32.39 a 5.52,5.52 0 0 1 -3.09,-1.46 5.52,5.52 0 0 1 -7.6,0 8.54,8.54 0 0 1 -13.4,-7 v -1.46" /><path
         id="_Path_2"
         data-name="&lt;Path&gt;"
         class="cls-3"
         d="m 44.49,39 a 5.11,5.11 0 0 1 -1.64,-1.16 5.58,5.58 0 0 1 -7.93,0 11.64,11.64 0 0 1 -17.62,-10 v -2.22" /><path
         id="_Path_3"
         data-name="&lt;Path&gt;"
         class="cls-6"
         d="M 43.48,12.62 A 1.143077,1.143077 0 1 0 42.6,10.51 c 0,0 0,0 -0.06,0 a 1.65,1.65 0 1 0 0,2 1.08,1.08 0 0 0 0.94,0.11 z" /><circle
         id="_Path_4"
         data-name="&lt;Path&gt;"
         class="cls-6"
         cx="32.459999"
         cy="17.35"
         r="1.2" /><circle
         id="_Path_6"
         data-name="&lt;Path&gt;"
         class="cls-6"
         cx="32.099998"
         cy="22.870001"
         r="1.5599999" /></g></g><g
     id="layer4"><g
       id="g3"
       transform="matrix(0.1240702,0,0,0.1240702,1.9957317,1.4717406)"><path
         d="m 0,0 c 6.557228,6.2580734 12.75216,12.934008 16.84375,21.117187 5.895285,-0.872029 11.513522,-2.463259 17.246094,-4.0625 24.164774,-6.034907 49.580618,-0.944197 70.937496,11.246094 14.26701,9.201328 24.79266,20.50626 33.81641,34.816406 0.96873,-0.216562 0.96873,-0.216562 1.95703,-0.4375 22.13756,-4.360886 44.3037,-1.014312 63.73047,10.625 19.75526,13.346557 32.6156,32.263583 37.90625,55.410153 0.59313,3.50746 0.46648,6.8489 0.40625,10.40235 0.92812,0.18562 1.85625,0.37125 2.8125,0.5625 9.94934,2.88851 17.87319,10.4505 25.1875,17.4375 0.61488,0.54011 1.22977,1.08023 1.86328,1.63672 13.40428,12.23332 21.86839,31.9509 23.43848,49.79223 0.13374,3.488 0.16585,6.95568 0.13574,10.44605 -0.0103,1.83981 -0.0103,1.83981 -0.0208,3.71679 -0.16072,9.07741 -1.13885,16.88137 -4.41675,25.40821 -0.37383,1.04672 -0.74766,2.09343 -1.13281,3.17187 -4.44124,11.58839 -11.2027,21.02066 -19.86719,29.82813 -0.76055,0.77343 -1.52109,1.54687 -2.30469,2.34375 -21.75266,20.8255 -48.59538,23.12627 -77.15645,23.04842 -3.72402,-0.007 -7.448,0.004 -11.17201,0.0119 -7.27652,0.0133 -14.55296,0.0105 -21.82949,0.002 -5.91913,-0.007 -11.83824,-0.008 -17.75738,-0.004 -0.84538,4.6e-4 -1.69077,9.2e-4 -2.56177,0.001 -1.71788,9.6e-4 -3.43577,0.002 -5.15365,0.003 -16.0752,0.009 -32.15036,-10e-4 -48.225552,-0.0174 -13.763826,-0.0134 -27.527576,-0.0111 -41.291401,0.003 -16.019722,0.0161 -32.039399,0.0224 -48.0591289,0.0132 -1.711548,-9.5e-4 -3.423096,-0.002 -5.1346439,-0.003 -1.2628582,-6.9e-4 -1.2628582,-6.9e-4 -2.5512292,-0.001 -5.904763,-0.003 -11.809497,0.002 -17.714255,0.009 -7.20642,0.008 -14.412743,0.006 -21.619152,-0.01 -3.669899,-0.008 -7.339635,-0.0111 -11.009533,-0.001 -30.637609,0.0764 -56.140605,-3.9955 -79.002635,-25.81987 -17.77696,-18.65309 -24.04559,-42.00073 -23.72656,-67.16015 0.5888,-19.78446 8.68388,-37.35228 21.26953,-52.41797 0.62777,-0.75539 1.25555,-1.51078 1.90234,-2.28907 1.34478,-1.58842 2.71716,-3.15345 4.09766,-4.71093 -0.82242,-0.76442 -1.64484,-1.52883 -2.49219,-2.31641 -20.35707,-19.35239 -32.45465,-44.31389 -33.67578,-72.570311 -0.15506,-30.175538 10.09531,-56.415731 31.16797,-78.1132815 C -104.28934,-37.8795 -39.764897,-36.823851 0,0 Z"
         fill="#f4f4f4"
         transform="translate(216.15625,69.882812)"
         id="path1-0" /><path
         d="m 0,0 c 6.557228,6.2580734 12.75216,12.934008 16.84375,21.117187 5.895285,-0.872029 11.513522,-2.463259 17.246094,-4.0625 24.164774,-6.034907 49.580618,-0.944197 70.937496,11.246094 14.26701,9.201328 24.79266,20.50626 33.81641,34.816406 0.96873,-0.216562 0.96873,-0.216562 1.95703,-0.4375 22.13756,-4.360886 44.3037,-1.014312 63.73047,10.625 19.75526,13.346557 32.6156,32.263583 37.90625,55.410153 0.59313,3.50746 0.46648,6.8489 0.40625,10.40235 0.92812,0.18562 1.85625,0.37125 2.8125,0.5625 9.94934,2.88851 17.87319,10.4505 25.1875,17.4375 0.61488,0.54011 1.22977,1.08023 1.86328,1.63672 13.40428,12.23332 21.86839,31.9509 23.43848,49.79223 0.13374,3.488 0.16585,6.95568 0.13574,10.44605 -0.0103,1.83981 -0.0103,1.83981 -0.0208,3.71679 -0.16072,9.07741 -1.13885,16.88137 -4.41675,25.40821 -0.37383,1.04672 -0.74766,2.09343 -1.13281,3.17187 -4.44124,11.58839 -11.2027,21.02066 -19.86719,29.82813 -0.76055,0.77343 -1.52109,1.54687 -2.30469,2.34375 -21.75266,20.8255 -48.59538,23.12627 -77.15645,23.04842 -3.72402,-0.007 -7.448,0.004 -11.17201,0.0119 -7.27652,0.0133 -14.55296,0.0105 -21.82949,0.002 -5.91913,-0.007 -11.83824,-0.008 -17.75738,-0.004 -0.84538,4.6e-4 -1.69077,9.2e-4 -2.56177,0.001 -1.71788,9.6e-4 -3.43577,0.002 -5.15365,0.003 -16.0752,0.009 -32.15036,-10e-4 -48.225552,-0.0174 -13.763826,-0.0134 -27.527576,-0.0111 -41.291401,0.003 -16.019722,0.0161 -32.039399,0.0224 -48.0591289,0.0132 -1.711548,-9.5e-4 -3.423096,-0.002 -5.1346439,-0.003 -1.2628582,-6.9e-4 -1.2628582,-6.9e-4 -2.5512292,-0.001 -5.904763,-0.003 -11.809497,0.002 -17.714255,0.009 -7.20642,0.008 -14.412743,0.006 -21.619152,-0.01 -3.669899,-0.008 -7.339635,-0.0111 -11.009533,-0.001 -30.637609,0.0764 -56.140605,-3.9955 -79.002635,-25.81987 -17.77696,-18.65309 -24.04559,-42.00073 -23.72656,-67.16015 0.5888,-19.78446 8.68388,-37.35228 21.26953,-52.41797 0.62777,-0.75539 1.25555,-1.51078 1.90234,-2.28907 1.34478,-1.58842 2.71716,-3.15345 4.09766,-4.71093 -0.82242,-0.76442 -1.64484,-1.52883 -2.49219,-2.31641 -20.35707,-19.35239 -32.45465,-44.31389 -33.67578,-72.570311 -0.15506,-30.175538 10.09531,-56.415731 31.16797,-78.1132815 C -104.28934,-37.8795 -39.764897,-36.823851 0,0 Z M 4.84375,51.117187 C 4.0123047,51.756562 3.1808594,52.395938 2.3242188,53.054687 -11.818477,64.814283 -18.725015,83.158504 -22.25,100.62109 c -1.133386,3.1217 -1.952632,3.98528 -4.90625,5.4961 -2.536717,0.40564 -4.94955,0.6833 -7.5,0.875 -13.87072,1.41711 -27.274704,7.84639 -36.882812,18.12109 -5.169584,6.40579 -9.081392,13.53605 -12.476563,21.00781 -1.140625,1.9961 -1.140625,1.9961 -4.140625,3.9961 -1.759129,0.43463 -3.520257,0.8635 -5.29248,1.24121 -18.17811,3.89561 -33.4978,14.47429 -43.84033,29.95019 -4.91948,7.93777 -7.73801,15.6904 -9.86719,24.8086 -0.17435,0.64268 -0.34869,1.28535 -0.52832,1.94751 -3.88382,16.90024 1.97126,34.63323 10.52832,49.05249 10.24787,15.16939 25.34207,26.36753 43.274606,30.53241 10.059701,1.72591 20.519301,1.14879 30.699405,1.09189 3.780514,-0.0156 7.560947,-0.002 11.341464,0.008 7.384073,0.0145 14.767868,0.002 22.151913,-0.0191 8.612629,-0.0241 17.225195,-0.0223 25.8378503,-0.0197 15.3721067,0.004 30.7440837,-0.0171 46.1161487,-0.0512 14.892937,-0.0331 29.785738,-0.0473 44.678711,-0.041 16.250792,0.007 32.501532,0.004 48.752312,-0.0154 0.86026,-0.001 1.72051,-0.002 2.60683,-0.003 1.7274,-0.002 3.45479,-0.004 5.18219,-0.006 5.99431,-0.007 11.98861,-0.008 17.98292,-0.006 7.30827,10e-4 14.61642,-0.008 21.92465,-0.0319 3.72408,-0.0118 7.44801,-0.019 11.17211,-0.0132 4.04574,0.006 8.09105,-0.0111 12.13674,-0.0305 1.16422,0.005 2.32843,0.0106 3.52793,0.0161 19.19217,-0.15839 35.53244,-7.65263 49.42672,-20.66055 8.59431,-9.09894 13.66382,-19.85223 17.1875,-31.75 0.24621,-0.82758 0.49242,-1.65516 0.74609,-2.50782 4.30467,-17.51552 0.56077,-35.5527 -8.42187,-50.91796 -8.56766,-13.6972 -21.28846,-23.63488 -36.39063,-29.08985 -3.5086,-1.77532 -4.4559,-2.86279 -5.93359,-6.48437 -0.40012,-2.6797 -0.68161,-5.24581 -0.875,-7.9375 -1.79889,-18.53195 -10.54169,-34.26653 -24.75781,-46.289065 -12.54909,-9.545886 -26.17964,-14.338834 -41.92969,-14.148438 -0.96357,-0.0116 -1.92715,-0.0232 -2.91992,-0.03516 -5.83864,0.02362 -10.78538,0.798567 -16.30493,2.718262 -3.68023,1.150807 -6.37474,1.221261 -10.21265,0.691894 -2.51827,-2.147932 -3.73151,-4.487277 -5.25391,-7.394531 C 114.04584,54.640199 98.195955,42.37563 77.097656,35.027344 51.078188,27.749389 25.279672,34.228633 4.84375,51.117187 Z"
         fill="#020201"
         transform="translate(216.15625,69.882812)"
         id="path2-2" /><path
         d="m 0,0 c 8.940281,6.9058401 16.598444,14.530013 22.542236,24.225342 0,0.99 0,1.98 0,3 -1.90625,1.761719 -1.90625,1.761719 -4.5,3.6875 -16.4158204,12.711263 -27.8893233,30.5653 -32.84375,50.75 -0.65625,2.5625 -0.65625,2.5625 -1.65625,3.5625 -2.16439,0.367824 -4.331684,0.718576 -6.5,1.0625 -13.928106,2.564637 -26.309848,9.120365 -36.5,18.937498 -0.702539,0.67418 -1.405078,1.34836 -2.128906,2.04297 -3.183979,3.32106 -5.744005,6.56798 -7.800781,10.68359 -5.857176,11.53418 -5.857176,11.53418 -13.115235,13.9502 -2.053606,0.54944 -4.105531,1.02602 -6.185546,1.46387 -3.782542,0.69216 -3.782542,0.69216 -6.945313,2.53125 -2.824219,1.32812 -2.824219,1.32812 -5.398435,1.26172 -12.49582,-4.80919 -22.44643,-21.27397 -27.80078,-32.92579 -9.36368,-22.796098 -9.14048,-46.490344 -0.3125,-69.320308 9.01299,-20.177123 25.80383,-36.6120831 46.210934,-45.164063 C -55.096059,-20.577346 -24.215702,-17.803963 0,0 Z"
         fill="#fedb00"
         transform="translate(195.45776,75.774658)"
         id="path3-1" /><path
         d="m 0,0 c 0.90658145,-0.00384115 1.8131629,-0.00768229 2.7472165,-0.01163983 1.0024103,8.6648e-4 2.0048206,0.00173296 3.0376069,0.0026257 1.0599046,-0.00297112 2.1198093,-0.00594224 3.2118322,-0.0090034 3.5752054,-0.0087177 7.1503764,-0.01019783 10.7255914,-0.01168752 2.553727,-0.004626 5.107453,-0.0096503 7.661179,-0.01504516 6.954541,-0.01314684 13.909071,-0.01960979 20.863623,-0.02401066 4.340897,-0.0027607 8.681793,-0.0069977 13.022689,-0.01150418 12.014062,-0.01219429 24.028122,-0.02249315 36.04219,-0.02587509 0.769251,-2.1956e-4 1.538502,-4.3913e-4 2.331063,-6.6535e-4 1.156669,-3.2742e-4 1.156669,-3.2742e-4 2.336709,-6.6145e-4 1.56262,-4.4347e-4 3.12524,-8.9003e-4 4.68786,-0.00134 1.16268,-3.3214e-4 1.16268,-3.3214e-4 2.34884,-6.71e-4 12.56098,-0.003948 25.12191,-0.0214029 37.68287,-0.0446885 12.89014,-0.0237033 25.78025,-0.0361754 38.67041,-0.0373419 7.23977,-9.1736e-4 14.47947,-0.006685 21.71921,-0.0248196 6.80843,-0.0169939 13.61669,-0.0186612 20.42514,-0.009861 2.5022,7.7313e-4 5.00442,-0.003608 7.50661,-0.0134582 3.4096,-0.0126371 6.81869,-0.006887 10.22829,0.003582 0.99572,-0.008056 1.99144,-0.0161128 3.01733,-0.0244134 4.93049,0.0355326 8.50329,0.0669704 12.44109,3.39190604 2,3 2,3 1.875,6.4375 -1.00514,4.0923865 -1.44446,5.1750545 -4.875,7.5625005 -3.48686,0.607848 -6.94481,0.543399 -10.47656,0.514663 -1.07865,0.0069 -2.1573,0.01389 -3.26864,0.02105 -3.62681,0.01835 -7.25297,0.008 -10.8798,-0.0023 -2.59505,0.0071 -5.19011,0.0158 -7.78515,0.02611 -6.32419,0.02166 -12.6482,0.02151 -18.97242,0.01337 -5.13909,-0.0063 -10.27814,-0.0052 -15.41723,0.0013 -0.731,9.02e-4 -1.462,0.0018 -2.21515,0.0027 -1.48494,0.0019 -2.96988,0.0037 -4.45481,0.0056 -13.92927,0.01658 -27.85843,0.0079 -41.78769,-0.009 -12.74913,-0.0147 -25.49801,-6.7e-5 -38.2471,0.02877 -13.085719,0.02938 -26.171326,0.04037 -39.257073,0.03082 -1.479522,-10e-4 -2.959045,-0.002 -4.438568,-0.003 -1.091973,-7.15e-4 -1.091973,-7.15e-4 -2.206007,-0.0014 -5.133847,-0.0022 -10.267591,0.0077 -15.401415,0.02221 -6.90787,0.01932 -13.815293,0.01247 -20.723144,-0.0122 -2.539711,-0.005 -5.079456,-0.0015 -7.619141,0.01115 -3.458357,0.01583 -6.9152485,0.0011 -10.373535,-0.02167 -1.0128305,0.01184 -2.025661,0.02367 -3.0691833,0.03587 C -5.6433771,17.704721 -5.6433771,17.704721 -8.9161806,14.81481 -10.725389,11.287801 -10.861696,9.0436513 -10.292645,5.1314278 -7.1951908,1.2079852 -4.8889588,0.00774984 0,0 Z"
         fill="#cfd8dc"
         transform="translate(181.29265,323.86857)"
         id="path4-3" /><path
         d="M 0,0 C 11.921932,10.366897 23.625765,30.806465 25.078125,46.726562 25.278957,57.00247 22.567951,65.592908 15.875,73.5 7.8773003,81.22251 -1.2476784,84.143316 -12.227051,83.966064 -22.277592,83.503164 -28.698003,79.876031 -35.921875,73.015625 -43.155429,64.756035 -45.080157,55.318117 -44.385742,44.611328 -42.671017,30.726546 -32.911456,12.36454 -23.125,2.5 -15.868436,-2.8946823 -8.1880354,-3.930257 0,0 Z"
         fill="#000001"
         transform="translate(462.125,394.5)"
         id="path5-1" /><path
         d="M 0,0 C 11.868118,10.021967 21.993037,27.990539 24.8125,43.375 25.619721,54.971042 24.272146,63.278822 16.761719,72.300781 9.1293484,80.422602 1.4444292,83.467276 -9.625,83.8125 -19.675866,83.58133 -27.912242,80.415572 -35.1875,73.375 -41.815915,65.408878 -44.908623,56.96613 -44.59375,46.601562 -42.690401,31.48458 -32.222873,11.186403 -20.621094,1.15625 -14.092488,-3.6223124 -7.0628139,-3.6006502 0,0 Z"
         fill="#000000"
         transform="translate(291.1875,394.625)"
         id="path6-7" /><path
         d="m 0,0 c 4.4639757,2.9631095 7.3772389,6.3223495 10.235596,10.812012 0.41967,0.646867 0.839341,1.293735 1.271728,1.960205 8.838861,13.994723 16.71406,29.141864 13.64624,46.02417 C 22.844315,67.611603 17.637167,74.925206 9.7316894,79.569824 0.30714207,84.371268 -9.2875818,85.666676 -19.697998,83.413574 -28.5652,80.176561 -36.099332,73.277818 -40.701904,65.062012 -45.30338,53.028719 -43.822134,43.183302 -38.815186,31.585449 -26.611701,4.413308 -26.611701,4.413308 -15.014404,-1.2504883 -9.9569491,-2.3001488 -4.6514092,-2.5635797 0,0 Z"
         fill="#000000"
         transform="translate(119.7019,393.93799)"
         id="path7" /><path
         d="M 0,0 C 11.069759,9.6899735 21.658672,30.656092 23.273437,45.28125 23.676467,55.294977 20.498809,64.189779 14,71.804687 5.4637772,79.945715 -1.9712655,82.333299 -13.642822,82.220215 -23.833344,81.856228 -30.404888,78.340375 -37.796875,71.320312 -45.026017,63.065761 -46.957075,53.626452 -46.265137,42.924805 -44.311064,27.299422 -33.38875,10.193437 -22.5625,-0.6328125 -14.96607,-5.2647821 -7.1780674,-5.2527004 0,0 Z"
         fill="#000000"
         transform="translate(208,430.19531)"
         id="path8" /><path
         d="M 0,0 C 1.7966421,2.2162341 3.3455461,4.3050574 4.875,6.6875 5.298457,7.3345288 5.7219141,7.9815576 6.1582031,8.6481934 15.02917,22.588047 23.308249,38.444029 19.792969,55.289062 17.81522,62.050432 14.297721,67.364494 9,72 8.278125,72.680625 7.55625,73.36125 6.8125,74.0625 -2.2125737,80.279773 -11.348896,81.060781 -22,80 -30.68927,77.964882 -38.076848,73.016346 -43.3125,65.8125 -48.614687,57.245206 -50.263389,47.913422 -48,38.125 c 3.303882,-11.217833 8.773289,-21.702268 15.1875,-31.4375 0.403557,-0.6158496 0.807114,-1.2316992 1.2229,-1.8662109 3.821578,-5.58676386 7.645591,-9.2043476 14.409913,-10.6337891 C -10.479589,-6.3888525 -5.2392206,-4.030689 0,0 Z"
         fill="#000000"
         transform="translate(381,432)"
         id="path9" /><path
         d="M 0,0 C 15.586106,1.498664 29.494206,10.744516 39.300781,22.568359 49.225373,35.181501 53.831206,48.571815 54.558594,64.457031 55.114974,67.662374 55.96933,69.446794 58,72 c 2.972251,1.578554 2.972251,1.578554 6.4375,2.75 17.300966,6.760935 29.373207,20.240128 37.3125,36.6875 7.86682,18.40784 6.93301,37.27352 -0.4375,55.75 -7.788077,17.17223 -21.539522,30.52419 -39.188965,37.26489 C 59.431847,205.41872 56.778754,206.31709 54,207 c -0.66,-0.33 -1.32,-0.66 -2,-1 1.01707,-0.69223 1.01707,-0.69223 2.054687,-1.39844 C 71.676614,192.25157 84.202604,175.44603 88.375,154.0625 91.29565,131.8894 87.058465,110.5814 74.003906,92.1875 65.49336,81.264874 55.785708,74.437811 43.40625,68.628906 40,67 40,67 37,65 36.375,62.164062 36.375,62.164062 36,58.625 33.042592,35.687626 23.280904,18.339826 5,4 4.030625,3.21625 3.06125,2.4325 2.0625,1.625 1.381875,1.08875 0.70125,0.5525 0,0 Z"
         fill="#ccd5d9"
         transform="translate(388,150)"
         id="path10" /><path
         d="M 0,0 C 21.622888,4.8427521 38.535421,17.938068 51.496094,35.546875 53,38 53,38 53,41 51.09375,42.761719 51.09375,42.761719 48.5,44.6875 32.084179,57.398763 20.610676,75.2528 15.65625,95.4375 15,98 15,98 14,99 c -2.85227,0.563447 -5.6963161,1.08135 -8.5625,1.5625 -0.8063086,0.13857 -1.6126172,0.27715 -2.4433594,0.41992 C 0.99670189,101.32518 -1.0015747,101.66304 -3,102 0.25485743,80.332861 13.432149,61.217677 30.632812,47.972656 36.446912,44 36.446912,44 39,44 35.241729,35.71472 30.940248,28.873882 25,22 24.457305,21.31293 23.914609,20.625859 23.355469,19.917969 17.624099,12.847885 10.209094,7.733225 2.6289063,2.796875 1.7613672,2.2039063 0.89382812,1.6109375 0,1 0,0.67 0,0.34 0,0 Z"
         fill="#fabe07"
         transform="translate(165,62)"
         id="path11" /><path
         d="M 0,0 C 0.66,0 1.32,0 2,0 3.5282325,2.011154 4.9003444,3.997278 6.25,6.125 6.6489648,6.7486645 7.0479297,7.3723291 7.4589844,8.0148926 12.995542,16.915956 19.447664,28.27505 18,39 15.408192,44.083932 11.455619,48.502565 6.125,50.8125 5.42375,50.874375 4.7225,50.93625 4,51 2.7625,51.12375 1.525,51.2475 0.25,51.375 -4.7736929,51.290647 -8.272188,49.265959 -12,46 -15.398067,42.067406 -16.314724,38.273798 -16.205078,33.098389 -15.043256,21.210459 -6.4169635,9.6254452 0,0 Z"
         fill="#01a5ef"
         transform="translate(366,444)"
         id="path12" /><path
         d="M 0,0 C 8.6098565,8.0119498 17.126668,22.502512 18.21875,34.378906 17.85991,39.106625 16.054408,42.475683 13,46 8.538757,49.825364 4.2566336,51.911581 -1.6914062,51.550781 -7.3559066,50.199352 -11.666942,46.817806 -15.0625,42.1875 -17.982407,32.259818 -14.499906,23.841119 -10,15 -3.4390651,3.4390651 -3.4390651,3.4390651 0,0 Z"
         fill="#01a5ef"
         transform="translate(281,410)"
         id="path13" /><path
         d="M 0,0 C 0.66,0 1.32,0 2,0 3.5282325,2.011154 4.9003444,3.997278 6.25,6.125 6.6489648,6.7486645 7.0479297,7.3723291 7.4589844,8.0148926 12.989556,16.906333 19.463817,28.285674 18,39 15.292434,44.214571 11.802415,47.525045 6.625,50.25 2.0810221,51.548279 -1.5957448,51.487191 -6.0625,49.9375 -10.265789,47.165118 -13.732291,43.535418 -16,39 -17.452374,26.170693 -9.2462935,13.08059 -2.25,2.8125 -1.5075,1.884375 -0.765,0.95625 0,0 Z"
         fill="#01a5ef"
         transform="translate(110,410)"
         id="path14" /><path
         d="M 0,0 C 8.5949398,7.8101012 16.956978,23.65727 17.625,35.3125 17.327195,40.3269 15.60984,43.554659 12,47 7.7083578,50.588793 3.6932965,51.608858 -1.8632812,51.316406 -6.7352476,50.594963 -9.3950828,48.632413 -12.75,45.125 -16.185188,40.353905 -17.567309,37.333526 -16.601562,31.359375 -13.740219,20.136961 -7.8435392,8.5356162 0,0 Z"
         fill="#01a6ef"
         transform="translate(196,444)"
         id="path15" /><path
         d="M 0,0 C 8.3151212,7.3368717 16.053533,20.929159 17.218262,32.091797 17.344069,37.679208 16.2385,41.519743 13,46 7.4726,50.491012 3.0569246,51.598044 -4,51 -9.8168915,48.760862 -13.255343,45.07392 -16.3125,39.6875 -19.03056,29.062357 -11.482415,17.359064 -6.4921875,8.4257813 -4.5799801,5.3171928 -2.4666708,2.6843182 0,0 Z"
         fill="#01a6f0"
         transform="translate(452,410)"
         id="path16" /><path
         d="M 0,0 C 2.9375,2 2.9375,2 5,5 5.806758,11.954553 3.9457883,15.973471 0.3125,21.8125 -0.12255859,22.56209 -0.55761719,23.31168 -1.0058594,24.083984 -3.4594531,28.151498 -5.449592,31.126303 -10,33 -13.847525,32.9325 -16.191001,32.518589 -19.4375,30.4375 -21.62821,27.019993 -21.554758,23.907446 -21,20 c 1.087436,-2.948949 2.573763,-5.559587 4.1875,-8.25 0.387363,-0.693516 0.774727,-1.387031 1.173828,-2.1015625 C -11.844058,3.1003763 -8.1588922,-1.3112505 0,0 Z"
         fill="#000000"
         transform="translate(217,18)"
         id="path17" /><path
         d="M 0,0 C 3.9950739,1.2001012 5.7738175,4.2301753 7.9765625,7.59375 8.6120703,8.5244531 9.2475781,9.4551563 9.9023438,10.414063 13.30205,15.741859 16.070205,20.282386 15.460938,26.75 14.666004,29.775875 13.631231,30.960108 10.976563,32.59375 7.3670437,33.578164 5.0866079,34.050828 1.5859375,32.609375 -2.0845708,29.774072 -4.0286927,26.381547 -6.3359375,22.40625 -6.790332,21.675996 -7.2447266,20.945742 -7.7128906,20.193359 -10.736775,15.059576 -11.707852,11.548796 -11.023438,5.59375 -8.0778828,1.175418 -5.2050592,-0.38989207 0,0 Z"
         fill="#000000"
         transform="translate(79.023437,17.40625)"
         id="path18" /><path
         d="M 0,0 C 3.3423804,2.1425515 3.8916795,3.602825 4.9375,7.4375 5.0113229,11.645408 4.5478375,12.701637 2,16 c -2.59039354,2.020987 -5.3489946,3.665044 -8.1875,5.3125 -0.7302539,0.454395 -1.4605078,0.908789 -2.2128906,1.376953 C -13.532824,25.712543 -17.046119,26.690676 -23,26 c -3,-2.0625 -3,-2.0625 -5,-5 -0.635088,-3.951656 -0.625395,-6.024888 1.550781,-9.417969 C -23.375281,8.3414045 -20.125905,6.3523876 -16.25,4.1875 -15.571953,3.7808008 -14.893906,3.3741016 -14.195313,2.9550781 -9.2171765,0.13949741 -5.711538,-0.56440548 0,0 Z"
         fill="#000000"
         transform="translate(46,196)"
         id="path19" /><path
         d="M 0,0 C 3.1508637,1.2188295 5.9413183,2.8561696 8.8125,4.625 9.5620898,5.0516797 10.31168,5.4783594 11.083984,5.9179687 15.620711,8.6343286 18.213616,10.810981 20,16 19.928951,19.552426 19.386161,21.413036 17.4375,24.375 14.029348,26.647101 10.935784,26.570504 7,26 4.0515627,24.889635 1.4390244,23.380796 -1.25,21.75 -1.9435156,21.354258 -2.6370313,20.958516 -3.3515625,20.550781 -7.0029654,18.417299 -10.334745,16.350031 -13,13 -13.70476,8.0666787 -13.770414,6.155621 -11,2 -7.2503013,-0.49979912 -4.3398468,-0.69399522 0,0 Z"
         fill="#000000"
         transform="translate(31,68)"
         id="path20" /><path
         d="M 0,0 C 1.0802344,-0.01095703 2.1604688,-0.02191406 3.2734375,-0.03320312 7.9321048,0.00993268 11.093425,0.04477461 15.1875,2.3828125 17.732391,5.443263 18,7.615921 18,11.5625 c -1.588389,3.573876 -2.716344,4.810896 -6,7 C 8.0578318,19.052635 4.0943681,18.97901 0.125,19 -1.5088867,19.04931 -1.5088867,19.04931 -3.1757813,19.09961 -11.164847,19.15339 -11.164847,19.15339 -15.21875,16.285157 -17.68455,12.51616 -17.68455,12.51616 -17.625,9.5625 -17.637891,8.923125 -17.650781,8.28375 -17.664062,7.625 -14.903643,-0.94853906 -7.5181289,-0.16597301 0,0 Z"
         fill="#000000"
         transform="translate(17,135.4375)"
         id="path21" /><path
         d="M 0,0 C 0.639375,-0.01289063 1.27875,-0.02578125 1.9375,-0.0390625 5.5171371,1.1134722 6.8084406,2.545578 9,5.625 c 0.7178334,4.0130305 0.652258,7.934205 0.5625,12 0.010957,1.080234 0.021914,2.160469 0.033203,3.273437 -0.072451,7.82467 -0.072451,7.82467 -2.4472656,11.917969 C 4.3711592,35.15437 2.6147096,35.55123 -1,35.625 -5.0493609,34.589117 -6.8348788,33.157827 -9,29.625 -9.6443004,25.66967 -9.5094786,21.689822 -9.5,17.6875 -9.528359,16.602754 -9.556719,15.518008 -9.585937,14.400391 -9.6054144,6.4781781 -9.6054144,6.4781781 -6.71875,2.4101563 -2.9573346,-0.05962368 -2.9573346,-0.05962368 0,0 Z"
         fill="#000000"
         transform="translate(145,-0.625)"
         id="path22" /><path
         d="M 0,0 C 0.98484375,-0.00257813 1.9696875,-0.00515625 2.984375,-0.0078125 12.016761,0.11424677 12.016761,0.11424677 16,3.5 c 1.564712,3.1294246 1.69702,6.610822 1,10 -2.114946,2.655979 -3.309253,3.866874 -6.685547,4.517578 -1.0009569,0.0045 -2.0019139,0.009 -3.033203,0.01367 -1.0969922,0.0052 -2.1939844,0.01031 -3.3242187,0.01563 C 2.8162109,18.031406 1.6753906,18.015937 0.5,18 -1.2112305,18.0232 -1.2112305,18.0232 -2.9570313,18.04687 -4.0540234,18.04167 -5.1510156,18.03656 -6.28125,18.03124 -7.7826855,18.02444 -7.7826855,18.02444 -9.3144531,18.01757 -12.732484,17.35883 -13.915708,16.24913 -16,13.5 -16.944112,6.8912176 -16.944112,6.8912176 -14.152344,2.7773438 -9.5340701,-0.55902991 -5.5527266,-0.15989527 0,0 Z"
         fill="#cfd8dc"
         transform="translate(136,323.5)"
         id="path23" /><path
         d="M 0,0 C -0.53367188,0.32871094 -1.0673437,0.65742188 -1.6171875,0.99609375 -12.976165,8.2477594 -23.088567,17.41713 -28.859863,29.852783 c -1.749814,3.660403 -3.218013,5.536946 -6.960449,6.924561 -1.427268,0.413986 -2.862813,0.800332 -4.304688,1.160156 -0.72832,0.206895 -1.456641,0.413789 -2.207031,0.626953 C -47.492369,40 -47.492369,40 -50,40 -46.179897,25.483608 -35.157268,14.957761 -23,7 -19.420235,5.0583509 -15.801371,3.4546352 -12,2 -11.14793,1.67 -10.295859,1.34 -9.4179688,1 -3.4638846,-1.1546282 -3.4638846,-1.1546282 0,0 Z"
         fill="#fabf07"
         transform="translate(151,170)"
         id="path24" /><path
         d="M 0,0 C 0.66,0.33 1.32,0.66 2,1 0.875,2.9375 0.875,2.9375 -1,5 -4.1875,5.75 -4.1875,5.75 -7,6 -4.7425938,3.6647522 -2.7194239,1.8129493 0,0 Z"
         fill="#c1c9cc"
         transform="translate(447,351)"
         id="path25" /></g></g></svg>
