<?xml version="1.0" encoding="UTF-8"?>
<svg version="1.1" xmlns="http://www.w3.org/2000/svg" width="512" height="512">
<path d="M0 0 C6.55722801 6.25807337 12.75216037 12.93400825 16.84375 21.1171875 C22.73903549 20.2451576 28.35727173 18.6539281 34.08984375 17.0546875 C58.2546175 11.01978042 83.67046227 16.11048973 105.02734375 28.30078125 C119.29434798 37.50210852 129.81999803 48.80704132 138.84375 63.1171875 C139.81248047 62.900625 139.81248047 62.900625 140.80078125 62.6796875 C162.93833869 58.31880067 185.10448461 61.66537548 204.53125 73.3046875 C224.28650556 86.65124408 237.14685418 105.5682683 242.4375 128.71484375 C243.03063001 132.22229527 242.90397795 135.5637384 242.84375 139.1171875 C243.771875 139.3028125 244.7 139.4884375 245.65625 139.6796875 C255.6055873 142.56820478 263.52943733 150.13019347 270.84375 157.1171875 C271.45863281 157.65730469 272.07351563 158.19742188 272.70703125 158.75390625 C286.11130807 170.98723475 294.57541933 190.70480539 296.14550781 208.54614258 C296.27925184 212.0341372 296.31136426 215.50182439 296.28125 218.9921875 C296.27097778 220.83200195 296.27097778 220.83200195 296.26049805 222.70898438 C296.09977737 231.78639171 295.12165463 239.59035061 291.84375 248.1171875 C291.46992188 249.16390625 291.09609375 250.210625 290.7109375 251.2890625 C286.26970224 262.8774512 279.50823677 272.3097224 270.84375 281.1171875 C270.08320313 281.890625 269.32265625 282.6640625 268.5390625 283.4609375 C246.78639685 304.28644035 219.94368262 306.58721257 191.38261259 306.50936151 C187.65859266 306.50251176 183.93461338 306.51308133 180.21060181 306.52130127 C172.93407561 306.53457862 165.65764272 306.53178768 158.381113 306.52306335 C152.46197814 306.51626292 146.54286926 306.51538023 140.62373161 306.5186348 C139.77834763 306.5190945 138.93296364 306.51955419 138.06196196 306.52002782 C136.34407766 306.52098709 134.62619338 306.52195973 132.90830909 306.5229456 C116.83310555 306.53148206 100.75795348 306.52169309 84.68275838 306.5055445 C70.91893229 306.49214535 57.15518214 306.49446948 43.39135742 306.50830078 C27.37163496 306.52439172 11.35195754 306.53065569 -4.66777188 306.52146399 C-6.37931986 306.52050844 -8.09086785 306.51956533 -9.80241585 306.5186348 C-11.06527431 306.51794056 -11.06527431 306.51794056 -12.35364507 306.51723229 C-18.2584077 306.51465274 -24.16314153 306.51899101 -30.0678997 306.52607346 C-37.27432007 306.53452793 -44.48064253 306.5321261 -51.68705183 306.51623122 C-55.35695085 306.50840083 -59.02668725 306.50516627 -62.6965847 306.51517868 C-93.33419416 306.59157876 -118.83719027 302.51967936 -141.69921875 280.6953125 C-159.47617892 262.04222234 -165.74480561 238.69457765 -165.42578125 213.53515625 C-164.83697545 193.75070131 -156.74189662 176.18287867 -144.15625 161.1171875 C-143.52847656 160.36179688 -142.90070313 159.60640625 -142.25390625 158.828125 C-140.90912547 157.23970158 -139.53674646 155.67467068 -138.15625 154.1171875 C-138.97867188 153.35277344 -139.80109375 152.58835938 -140.6484375 151.80078125 C-161.00551186 132.44838946 -173.10308682 107.48689369 -174.32421875 79.23046875 C-174.47928318 49.05493109 -164.22891141 22.81473838 -143.15625 1.1171875 C-104.28933533 -37.87949984 -39.76489738 -36.82385057 0 0 Z " fill="#F4F4F4" transform="translate(216.15625,69.8828125)"/>
<path d="M0 0 C6.55722801 6.25807337 12.75216037 12.93400825 16.84375 21.1171875 C22.73903549 20.2451576 28.35727173 18.6539281 34.08984375 17.0546875 C58.2546175 11.01978042 83.67046227 16.11048973 105.02734375 28.30078125 C119.29434798 37.50210852 129.81999803 48.80704132 138.84375 63.1171875 C139.81248047 62.900625 139.81248047 62.900625 140.80078125 62.6796875 C162.93833869 58.31880067 185.10448461 61.66537548 204.53125 73.3046875 C224.28650556 86.65124408 237.14685418 105.5682683 242.4375 128.71484375 C243.03063001 132.22229527 242.90397795 135.5637384 242.84375 139.1171875 C243.771875 139.3028125 244.7 139.4884375 245.65625 139.6796875 C255.6055873 142.56820478 263.52943733 150.13019347 270.84375 157.1171875 C271.45863281 157.65730469 272.07351563 158.19742188 272.70703125 158.75390625 C286.11130807 170.98723475 294.57541933 190.70480539 296.14550781 208.54614258 C296.27925184 212.0341372 296.31136426 215.50182439 296.28125 218.9921875 C296.27097778 220.83200195 296.27097778 220.83200195 296.26049805 222.70898438 C296.09977737 231.78639171 295.12165463 239.59035061 291.84375 248.1171875 C291.46992188 249.16390625 291.09609375 250.210625 290.7109375 251.2890625 C286.26970224 262.8774512 279.50823677 272.3097224 270.84375 281.1171875 C270.08320313 281.890625 269.32265625 282.6640625 268.5390625 283.4609375 C246.78639685 304.28644035 219.94368262 306.58721257 191.38261259 306.50936151 C187.65859266 306.50251176 183.93461338 306.51308133 180.21060181 306.52130127 C172.93407561 306.53457862 165.65764272 306.53178768 158.381113 306.52306335 C152.46197814 306.51626292 146.54286926 306.51538023 140.62373161 306.5186348 C139.77834763 306.5190945 138.93296364 306.51955419 138.06196196 306.52002782 C136.34407766 306.52098709 134.62619338 306.52195973 132.90830909 306.5229456 C116.83310555 306.53148206 100.75795348 306.52169309 84.68275838 306.5055445 C70.91893229 306.49214535 57.15518214 306.49446948 43.39135742 306.50830078 C27.37163496 306.52439172 11.35195754 306.53065569 -4.66777188 306.52146399 C-6.37931986 306.52050844 -8.09086785 306.51956533 -9.80241585 306.5186348 C-11.06527431 306.51794056 -11.06527431 306.51794056 -12.35364507 306.51723229 C-18.2584077 306.51465274 -24.16314153 306.51899101 -30.0678997 306.52607346 C-37.27432007 306.53452793 -44.48064253 306.5321261 -51.68705183 306.51623122 C-55.35695085 306.50840083 -59.02668725 306.50516627 -62.6965847 306.51517868 C-93.33419416 306.59157876 -118.83719027 302.51967936 -141.69921875 280.6953125 C-159.47617892 262.04222234 -165.74480561 238.69457765 -165.42578125 213.53515625 C-164.83697545 193.75070131 -156.74189662 176.18287867 -144.15625 161.1171875 C-143.52847656 160.36179688 -142.90070313 159.60640625 -142.25390625 158.828125 C-140.90912547 157.23970158 -139.53674646 155.67467068 -138.15625 154.1171875 C-138.97867188 153.35277344 -139.80109375 152.58835938 -140.6484375 151.80078125 C-161.00551186 132.44838946 -173.10308682 107.48689369 -174.32421875 79.23046875 C-174.47928318 49.05493109 -164.22891141 22.81473838 -143.15625 1.1171875 C-104.28933533 -37.87949984 -39.76489738 -36.82385057 0 0 Z M4.84375 51.1171875 C4.01230469 51.7565625 3.18085938 52.3959375 2.32421875 53.0546875 C-11.81847655 64.81428296 -18.72501502 83.15850367 -22.25 100.62109375 C-23.38338626 103.74279125 -24.20263235 104.60637321 -27.15625 106.1171875 C-29.69296701 106.52283369 -32.1058003 106.80048998 -34.65625 106.9921875 C-48.52696953 108.40930036 -61.93095421 114.83858171 -71.5390625 125.11328125 C-76.70864578 131.51906923 -80.62045401 138.64932661 -84.015625 146.12109375 C-85.15625 148.1171875 -85.15625 148.1171875 -88.15625 150.1171875 C-89.91537874 150.55182001 -91.67650715 150.98068975 -93.44873047 151.35839844 C-111.62683955 155.25401197 -126.94653408 165.83268583 -137.2890625 181.30859375 C-142.20854161 189.24635835 -145.02706715 196.998992 -147.15625 206.1171875 C-147.3305957 206.75986572 -147.50494141 207.40254395 -147.68457031 208.06469727 C-151.56839 224.96494162 -145.71331166 242.69792613 -137.15625 257.1171875 C-126.90838492 272.28658446 -111.814179 283.48472202 -93.88164425 287.64959908 C-83.82194324 289.37551442 -73.36234253 288.79838776 -63.18223882 288.74149275 C-59.4017251 288.72591084 -55.62129239 288.73950691 -51.84077454 288.74923706 C-44.45670244 288.76368635 -37.07290742 288.75160926 -29.6888617 288.73012382 C-21.07623319 288.70599226 -12.46366653 288.70783553 -3.85101172 288.71042973 C11.52109496 288.71411126 26.89307188 288.69336681 42.26513672 288.65917969 C57.15807369 288.62607079 72.05087462 288.61192633 86.94384766 288.61816406 C103.19464161 288.6249371 119.44537878 288.6224437 135.69616437 288.60280466 C136.55641788 288.60176518 137.41667139 288.60072569 138.30299319 288.5996547 C140.03038902 288.59756394 141.75778482 288.59545297 143.4851806 288.59332153 C149.47949239 288.58644486 155.4737866 288.58575343 161.4681015 288.58720398 C168.77636658 288.5886477 176.0845212 288.57887944 183.3927497 288.55525762 C187.11683275 288.54344698 190.84076238 288.53623945 194.5648632 288.54209518 C198.61059817 288.54826849 202.65590602 288.53101648 206.70159912 288.51159668 C207.86581603 288.51692461 209.03003294 288.52225253 210.22952914 288.52774191 C229.42170282 288.36934687 245.76197141 280.87510693 259.65625 267.8671875 C268.25056372 258.76825352 273.32006962 248.0149585 276.84375 236.1171875 C277.08996094 235.28960937 277.33617187 234.46203125 277.58984375 233.609375 C281.89450745 216.09384682 278.15061196 198.056667 269.16796875 182.69140625 C260.60031333 168.99421262 247.87950905 159.05652522 232.77734375 153.6015625 C229.26873604 151.82623503 228.32143774 150.73877475 226.84375 147.1171875 C226.4436269 144.43748986 226.16214125 141.87137789 225.96875 139.1796875 C224.16986142 120.64774101 215.42706255 104.91316399 201.2109375 92.890625 C188.66185099 83.34473868 175.03129631 78.5517907 159.28125 78.7421875 C158.31767578 78.73058594 157.35410156 78.71898437 156.36132812 78.70703125 C150.52268636 78.73065354 145.57595031 79.50559801 140.05639648 81.42529297 C136.37616909 82.57610003 133.68165699 82.64655398 129.84375 82.1171875 C127.32548457 79.96925522 126.11223939 77.62991023 124.58984375 74.72265625 C114.04583569 54.64019948 98.19595465 42.3756295 77.09765625 35.02734375 C51.07818815 27.74938929 25.27967229 34.22863285 4.84375 51.1171875 Z " fill="#020201" transform="translate(216.15625,69.8828125)"/>
<path d="M0 0 C8.94028101 6.90584014 16.59844376 14.53001263 22.54223633 24.2253418 C22.54223633 25.2153418 22.54223633 26.2053418 22.54223633 27.2253418 C20.63598633 28.98706055 20.63598633 28.98706055 18.04223633 30.9128418 C1.6264156 43.62410495 -9.84708725 61.47814158 -14.80151367 81.6628418 C-15.45776367 84.2253418 -15.45776367 84.2253418 -16.45776367 85.2253418 C-18.62215353 85.59316648 -20.78944758 85.94391771 -22.95776367 86.2878418 C-36.88587034 88.85247861 -49.26761169 95.40820702 -59.45776367 105.2253418 C-60.16030273 105.89952148 -60.8628418 106.57370117 -61.58666992 107.26831055 C-64.77064917 110.58936914 -67.33067458 113.83628815 -69.38745117 117.9519043 C-75.24462745 129.48607935 -75.24462745 129.48607935 -82.50268555 131.90209961 C-84.55629235 132.45153771 -86.60821652 132.92812243 -88.68823242 133.3659668 C-92.47077386 134.05812589 -92.47077386 134.05812589 -95.63354492 135.8972168 C-98.45776367 137.2253418 -98.45776367 137.2253418 -101.03198242 137.15893555 C-113.52780422 132.34975453 -123.47840604 115.88496664 -128.83276367 104.2331543 C-138.19644387 81.43705191 -137.97323967 57.74280621 -129.14526367 34.9128418 C-120.13227068 14.73571851 -103.34143084 -1.69924114 -82.93432617 -10.2512207 C-55.09605915 -20.57734578 -24.2157018 -17.80396326 0 0 Z " fill="#FEDB00" transform="translate(195.457763671875,75.774658203125)"/>
<path d="M0 0 C0.90658145 -0.00384115 1.8131629 -0.00768229 2.74721652 -0.01163983 C3.7496268 -0.01077335 4.75203707 -0.00990687 5.78482342 -0.00901413 C6.84472805 -0.01198525 7.90463269 -0.01495637 8.99665564 -0.01801753 C12.57186065 -0.02673521 16.1470323 -0.02821536 19.72224712 -0.02970505 C22.27597405 -0.03433104 24.82970029 -0.0393554 27.38342571 -0.04475021 C34.33796692 -0.05789705 41.29249709 -0.06436 48.24704862 -0.06876087 C52.58794639 -0.07152157 56.92884193 -0.07575861 61.2697382 -0.08026505 C73.28379998 -0.09245934 85.29785996 -0.1027582 97.3119278 -0.10614014 C98.08117867 -0.1063597 98.85042954 -0.10657927 99.64299105 -0.10680549 C100.79966052 -0.10713291 100.79966052 -0.10713291 101.97969705 -0.10746694 C103.54231791 -0.10791041 105.10493877 -0.10835697 106.66755962 -0.10880661 C107.83023555 -0.10913875 107.83023555 -0.10913875 109.01639988 -0.10947761 C121.57738261 -0.113426 134.13830734 -0.13088055 146.69926766 -0.15416613 C159.5894089 -0.17786944 172.47952101 -0.19034153 185.3696844 -0.19150805 C192.60945333 -0.19242541 199.8491467 -0.19819295 207.08889484 -0.21632767 C213.89732063 -0.2333216 220.70557838 -0.23498892 227.5140276 -0.22618866 C230.01623449 -0.22541553 232.51844894 -0.2297971 235.02063656 -0.23964691 C238.43024242 -0.25228404 241.83933307 -0.2465342 245.24893475 -0.23606491 C246.24465286 -0.24412132 247.24037097 -0.25217772 248.26626235 -0.26047826 C253.19675123 -0.22494568 256.76954562 -0.1935079 260.70735455 3.13142776 C262.70735455 6.13142776 262.70735455 6.13142776 262.58235455 9.56892776 C261.57720709 13.66131385 261.1378911 14.74398244 257.70735455 17.13142776 C254.22048516 17.73927578 250.762535 17.67482704 247.23079205 17.64609146 C246.15213879 17.65303699 245.07348553 17.65998252 243.96214581 17.66713852 C240.33534049 17.685485 236.70918365 17.67512255 233.08235455 17.66487503 C230.48729746 17.67192956 227.89224449 17.6806726 225.2971983 17.69098282 C218.97300802 17.71264069 212.64899756 17.7124915 206.32478237 17.70435727 C201.18568718 17.69806132 196.04664449 17.69919057 190.90754986 17.70562935 C190.17655134 17.706531 189.44555283 17.70743266 188.69240284 17.70836164 C187.20746389 17.71021281 185.72252495 17.71207537 184.23758602 17.7139492 C170.30832051 17.73053371 156.37915625 17.72180276 142.44989681 17.70496362 C129.70077455 17.6902641 116.9518879 17.70489734 104.20279598 17.73373378 C91.11708068 17.7631116 78.03147419 17.77410493 64.94572735 17.76455158 C63.46620466 17.76352901 61.98668196 17.7625344 60.50715923 17.76156807 C59.41518577 17.76085348 59.41518577 17.76085348 58.30115223 17.76012446 C53.16730541 17.75795829 48.03356137 17.76777506 42.89973736 17.7823391 C35.99186749 17.80166225 29.08444378 17.79480992 22.17659283 17.77013969 C19.63688154 17.76511317 17.09713711 17.76866887 14.5574522 17.78128815 C11.09909525 17.79711679 7.64220352 17.78236227 4.18391705 17.75961685 C3.17108654 17.77145258 2.15825603 17.78328831 1.1147337 17.7954827 C-5.64337713 17.70473764 -5.64337713 17.70473764 -8.91618061 14.8148222 C-10.72538917 11.28780137 -10.86169616 9.04365134 -10.29264545 5.13142776 C-7.19519082 1.20798523 -4.88895881 0.00774984 0 0 Z " fill="#CFD8DC" transform="translate(181.29264545440674,323.8685722351074)"/>
<path d="M0 0 C11.92193212 10.36689749 23.62576526 30.80646536 25.078125 46.7265625 C25.27895707 57.00246997 22.56795101 65.59290822 15.875 73.5 C7.87730031 81.22251003 -1.24767837 84.14331565 -12.22705078 83.96606445 C-22.27759151 83.50316363 -28.69800346 79.8760313 -35.921875 73.015625 C-43.15542911 64.75603485 -45.08015675 55.3181172 -44.38574219 44.61132812 C-42.67101653 30.7265458 -32.91145623 12.36453966 -23.125 2.5 C-15.86843615 -2.89468234 -8.1880354 -3.93025699 0 0 Z " fill="#000001" transform="translate(462.125,394.5)"/>
<path d="M0 0 C11.86811836 10.02196661 21.993037 27.99053886 24.8125 43.375 C25.61972113 54.97104195 24.27214585 63.27882165 16.76171875 72.30078125 C9.12934842 80.42260218 1.4444292 83.46727635 -9.625 83.8125 C-19.67586625 83.58133008 -27.912242 80.41557226 -35.1875 73.375 C-41.81591479 65.40887791 -44.90862295 56.96613042 -44.59375 46.6015625 C-42.69040108 31.4845797 -32.22287313 11.18640326 -20.62109375 1.15625 C-14.09248764 -3.62231242 -7.0628139 -3.60065022 0 0 Z " fill="#000000" transform="translate(291.1875,394.625)"/>
<path d="M0 0 C4.46397569 2.96310946 7.37723893 6.32234947 10.2355957 10.81201172 C10.65526611 11.45887939 11.07493652 12.10574707 11.50732422 12.7722168 C20.34618453 26.76693965 28.22138435 41.91408084 25.15356445 58.79638672 C22.84431534 67.61160253 17.63716688 74.92520582 9.73168945 79.56982422 C0.30714207 84.37126757 -9.28758179 85.66667604 -19.69799805 83.41357422 C-28.56520011 80.1765613 -36.09933223 73.27781794 -40.7019043 65.06201172 C-45.30337984 53.02871908 -43.82213437 43.18330157 -38.81518555 31.58544922 C-26.61170145 4.413308 -26.61170145 4.413308 -15.0144043 -1.25048828 C-9.95694905 -2.3001488 -4.65140918 -2.5635797 0 0 Z " fill="#000000" transform="translate(119.701904296875,393.93798828125)"/>
<path d="M0 0 C11.06975854 9.68997347 21.65867245 30.65609228 23.2734375 45.28125 C23.67646675 55.29497677 20.49880896 64.18977874 14 71.8046875 C5.46377721 79.94571479 -1.9712655 82.33329915 -13.64282227 82.22021484 C-23.83334396 81.85622776 -30.40488833 78.34037531 -37.796875 71.3203125 C-45.02601658 63.06576077 -46.95707483 53.62645245 -46.26513672 42.92480469 C-44.31106421 27.29942198 -33.38874955 10.19343705 -22.5625 -0.6328125 C-14.96606982 -5.26478212 -7.17806742 -5.25270037 0 0 Z " fill="#000000" transform="translate(208,430.1953125)"/>
<path d="M0 0 C1.79664215 2.21623412 3.34554607 4.30505738 4.875 6.6875 C5.29845703 7.33452881 5.72191406 7.98155762 6.15820312 8.64819336 C15.02916997 22.58804662 23.3082488 38.44402924 19.79296875 55.2890625 C17.81521956 62.05043166 14.29772138 67.36449379 9 72 C8.278125 72.680625 7.55625 73.36125 6.8125 74.0625 C-2.21257367 80.27977297 -11.34889644 81.06078064 -22 80 C-30.68926972 77.96488157 -38.07684781 73.01634576 -43.3125 65.8125 C-48.61468674 57.24520645 -50.26338882 47.9134218 -48 38.125 C-44.69611778 26.90716734 -39.22671133 16.42273223 -32.8125 6.6875 C-32.40894287 6.07165039 -32.00538574 5.45580078 -31.58959961 4.82128906 C-27.76802206 -0.76547476 -23.94400906 -4.38305846 -17.1796875 -5.8125 C-10.47958922 -6.38885254 -5.2392206 -4.03068904 0 0 Z " fill="#000000" transform="translate(381,432)"/>
<path d="M0 0 C15.58610554 1.49866399 29.49420615 10.74451582 39.30078125 22.56835938 C49.22537291 35.18150141 53.83120571 48.57181498 54.55859375 64.45703125 C55.11497436 67.66237443 55.96933031 69.44679397 58 72 C60.97225053 73.57855442 60.97225053 73.57855442 64.4375 74.75 C81.73846574 81.51093454 93.81070653 94.99012785 101.75 111.4375 C109.61682167 129.84534346 108.6830102 148.71101666 101.3125 167.1875 C93.52442288 184.3597293 79.77297792 197.71168884 62.12353516 204.45239258 C59.43184713 205.41872051 56.77875445 206.31708577 54 207 C53.34 206.67 52.68 206.34 52 206 C53.01707031 205.30777344 53.01707031 205.30777344 54.0546875 204.6015625 C71.67661406 192.25156965 84.2026037 175.44603106 88.375 154.0625 C91.2956501 131.88940127 87.05846532 110.58139928 74.00390625 92.1875 C65.49335981 81.26487355 55.78570774 74.43781059 43.40625 68.62890625 C40 67 40 67 37 65 C36.375 62.1640625 36.375 62.1640625 36 58.625 C33.04259234 35.68762563 23.28090439 18.3398263 5 4 C4.030625 3.21625 3.06125 2.4325 2.0625 1.625 C1.381875 1.08875 0.70125 0.5525 0 0 Z " fill="#CCD5D9" transform="translate(388,150)"/>
<path d="M0 0 C21.62288822 4.84275212 38.53542146 17.93806786 51.49609375 35.546875 C53 38 53 38 53 41 C51.09375 42.76171875 51.09375 42.76171875 48.5 44.6875 C32.08417927 57.39876316 20.61067642 75.25279978 15.65625 95.4375 C15 98 15 98 14 99 C11.14772981 99.56344744 8.30368392 100.08134945 5.4375 100.5625 C4.63119141 100.70107422 3.82488281 100.83964844 2.99414062 100.98242188 C0.99670189 101.32517763 -1.00157472 101.66304388 -3 102 C0.25485743 80.33286084 13.43214916 61.21767743 30.6328125 47.97265625 C36.44691176 44 36.44691176 44 39 44 C35.24172874 35.71472017 30.94024808 28.87388236 25 22 C24.45730469 21.31292969 23.91460937 20.62585938 23.35546875 19.91796875 C17.62409943 12.84788542 10.20909421 7.73322504 2.62890625 2.796875 C1.76136719 2.20390625 0.89382812 1.6109375 0 1 C0 0.67 0 0.34 0 0 Z " fill="#FABE07" transform="translate(165,62)"/>
<path d="M0 0 C0.66 0 1.32 0 2 0 C3.52823252 2.01115399 4.90034442 3.99727805 6.25 6.125 C6.64896484 6.74866455 7.04792969 7.3723291 7.45898438 8.01489258 C12.99554197 16.91595648 19.44766432 28.27505027 18 39 C15.40819171 44.08393165 11.45561923 48.502565 6.125 50.8125 C5.42375 50.874375 4.7225 50.93625 4 51 C2.7625 51.12375 1.525 51.2475 0.25 51.375 C-4.77369294 51.29064695 -8.27218797 49.26595921 -12 46 C-15.39806675 42.0674059 -16.31472411 38.27379838 -16.20507812 33.09838867 C-15.04325604 21.2104591 -6.41696347 9.6254452 0 0 Z " fill="#01A5EF" transform="translate(366,444)"/>
<path d="M0 0 C8.60985645 8.01194975 17.12666779 22.50251222 18.21875 34.37890625 C17.8599099 39.10662461 16.05440811 42.47568295 13 46 C8.53875696 49.8253645 4.25663364 51.9115809 -1.69140625 51.55078125 C-7.35590658 50.19935224 -11.66694222 46.81780607 -15.0625 42.1875 C-17.98240652 32.25981782 -14.49990559 23.84111885 -10 15 C-3.43906511 3.43906511 -3.43906511 3.43906511 0 0 Z " fill="#01A5EF" transform="translate(281,410)"/>
<path d="M0 0 C0.66 0 1.32 0 2 0 C3.52823252 2.01115399 4.90034442 3.99727805 6.25 6.125 C6.64896484 6.74866455 7.04792969 7.3723291 7.45898438 8.01489258 C12.98955612 16.9063331 19.46381689 28.28567362 18 39 C15.29243438 44.21457083 11.80241501 47.52504473 6.625 50.25 C2.08102214 51.54827939 -1.59574476 51.48719059 -6.0625 49.9375 C-10.26578938 47.16511765 -13.73229118 43.53541764 -16 39 C-17.45237441 26.17069271 -9.24629354 13.08058963 -2.25 2.8125 C-1.5075 1.884375 -0.765 0.95625 0 0 Z " fill="#01A5EF" transform="translate(110,410)"/>
<path d="M0 0 C8.59493975 7.81010115 16.95697778 23.65727027 17.625 35.3125 C17.32719454 40.32690003 15.60983958 43.55465944 12 47 C7.70835782 50.5887926 3.69329651 51.60885771 -1.86328125 51.31640625 C-6.73524761 50.59496333 -9.39508284 48.6324134 -12.75 45.125 C-16.18518808 40.35390544 -17.56730871 37.33352599 -16.6015625 31.359375 C-13.74021865 20.13696147 -7.84353918 8.53561617 0 0 Z " fill="#01A6EF" transform="translate(196,444)"/>
<path d="M0 0 C8.31512121 7.33687166 16.05353267 20.92915872 17.21826172 32.09179688 C17.34406927 37.6792084 16.23850038 41.51974334 13 46 C7.47260004 50.49101247 3.05692456 51.59804445 -4 51 C-9.81689146 48.76086186 -13.2553427 45.07392001 -16.3125 39.6875 C-19.03055982 29.06235708 -11.48241513 17.35906439 -6.4921875 8.42578125 C-4.57998011 5.31719279 -2.46667078 2.6843182 0 0 Z " fill="#01A6F0" transform="translate(452,410)"/>
<path d="M0 0 C2.9375 2 2.9375 2 5 5 C5.80675797 11.9545525 3.94578825 15.9734708 0.3125 21.8125 C-0.12255859 22.56208984 -0.55761719 23.31167969 -1.00585938 24.08398438 C-3.45945308 28.1514975 -5.44959201 31.12630259 -10 33 C-13.84752461 32.93249957 -16.19100111 32.51858903 -19.4375 30.4375 C-21.62820954 27.01999312 -21.55475826 23.90744649 -21 20 C-19.91256441 17.05105137 -18.42623657 14.44041343 -16.8125 11.75 C-16.42513672 11.05648438 -16.03777344 10.36296875 -15.63867188 9.6484375 C-11.84405785 3.10037627 -8.15889215 -1.31125052 0 0 Z " fill="#000000" transform="translate(217,18)"/>
<path d="M0 0 C3.9950739 1.20010125 5.77381749 4.23017535 7.9765625 7.59375 C8.61207031 8.52445313 9.24757813 9.45515625 9.90234375 10.4140625 C13.30204997 15.74185861 16.07020545 20.28238635 15.4609375 26.75 C14.6660042 29.77587514 13.63123089 30.96010792 10.9765625 32.59375 C7.36704372 33.57816421 5.08660789 34.05082751 1.5859375 32.609375 C-2.08457078 29.7740722 -4.02869268 26.38154737 -6.3359375 22.40625 C-6.79033203 21.67599609 -7.24472656 20.94574219 -7.71289062 20.19335938 C-10.73677544 15.05957598 -11.70785207 11.54879642 -11.0234375 5.59375 C-8.07788281 1.17541797 -5.20505916 -0.38989207 0 0 Z " fill="#000000" transform="translate(79.0234375,17.40625)"/>
<path d="M0 0 C3.34238038 2.14255152 3.89167954 3.60282498 4.9375 7.4375 C5.01132295 11.64540822 4.54783753 12.70163668 2 16 C-0.59039354 18.020987 -3.34899462 19.66504417 -6.1875 21.3125 C-6.91775391 21.76689453 -7.64800781 22.22128906 -8.40039062 22.68945312 C-13.53282402 25.71254277 -17.04611919 26.69067575 -23 26 C-26 23.9375 -26 23.9375 -28 21 C-28.63508757 17.048344 -28.62539516 14.97511235 -26.44921875 11.58203125 C-23.37528085 8.34140453 -20.12590525 6.3523876 -16.25 4.1875 C-15.57195313 3.78080078 -14.89390625 3.37410156 -14.1953125 2.95507812 C-9.21717652 0.13949741 -5.71153804 -0.56440548 0 0 Z " fill="#000000" transform="translate(46,196)"/>
<path d="M0 0 C3.15086369 1.21882953 5.94131834 2.85616964 8.8125 4.625 C9.56208984 5.05167969 10.31167969 5.47835937 11.08398438 5.91796875 C15.62071075 8.6343286 18.21361634 10.8109808 20 16 C19.92895147 19.55242634 19.3861606 21.41303588 17.4375 24.375 C14.02934847 26.64710102 10.93578393 26.57050415 7 26 C4.05156271 24.88963473 1.43902437 23.38079615 -1.25 21.75 C-1.94351562 21.35425781 -2.63703125 20.95851563 -3.3515625 20.55078125 C-7.00296545 18.41729868 -10.33474463 16.35003131 -13 13 C-13.70476018 8.06667872 -13.77041398 6.15562097 -11 2 C-7.25030133 -0.49979912 -4.33984679 -0.69399522 0 0 Z " fill="#000000" transform="translate(31,68)"/>
<path d="M0 0 C1.08023437 -0.01095703 2.16046875 -0.02191406 3.2734375 -0.03320312 C7.93210476 0.00993268 11.09342507 0.04477461 15.1875 2.3828125 C17.73239075 5.44326301 18 7.61592097 18 11.5625 C16.41161066 15.13637602 15.28365642 16.37339572 12 18.5625 C8.0578318 19.05263484 4.09436806 18.97901039 0.125 19 C-1.50888672 19.04930664 -1.50888672 19.04930664 -3.17578125 19.09960938 C-11.16484656 19.15339133 -11.16484656 19.15339133 -15.21875 16.28515625 C-17.6845496 12.51615994 -17.6845496 12.51615994 -17.625 9.5625 C-17.63789063 8.923125 -17.65078125 8.28375 -17.6640625 7.625 C-14.90364273 -0.94853906 -7.51812889 -0.16597301 0 0 Z " fill="#000000" transform="translate(17,135.4375)"/>
<path d="M0 0 C0.639375 -0.01289063 1.27875 -0.02578125 1.9375 -0.0390625 C5.51713707 1.11347216 6.80844058 2.54557804 9 5.625 C9.71783339 9.63803045 9.65225801 13.55920468 9.5625 17.625 C9.57345703 18.70523437 9.58441406 19.78546875 9.59570312 20.8984375 C9.52325248 28.72310701 9.52325248 28.72310701 7.1484375 32.81640625 C4.37115916 35.15436965 2.61470964 35.55123042 -1 35.625 C-5.04936092 34.58911697 -6.83487882 33.15782731 -9 29.625 C-9.6443004 25.66966983 -9.50947856 21.68982233 -9.5 17.6875 C-9.52835938 16.60275391 -9.55671875 15.51800781 -9.5859375 14.40039062 C-9.60541436 6.47817811 -9.60541436 6.47817811 -6.71875 2.41015625 C-2.95733461 -0.05962368 -2.95733461 -0.05962368 0 0 Z " fill="#000000" transform="translate(145,-0.625)"/>
<path d="M0 0 C0.98484375 -0.00257813 1.9696875 -0.00515625 2.984375 -0.0078125 C12.0167609 0.11424677 12.0167609 0.11424677 16 3.5 C17.56471233 6.62942465 17.69701958 10.11082223 17 13.5 C14.88505366 16.15597913 13.69074682 17.36687425 10.31445312 18.01757812 C9.31349609 18.02208984 8.31253906 18.02660156 7.28125 18.03125 C6.18425781 18.03640625 5.08726562 18.0415625 3.95703125 18.046875 C2.81621094 18.03140625 1.67539063 18.0159375 0.5 18 C-1.21123047 18.02320313 -1.21123047 18.02320313 -2.95703125 18.046875 C-4.05402344 18.04171875 -5.15101563 18.0365625 -6.28125 18.03125 C-7.78268555 18.02448242 -7.78268555 18.02448242 -9.31445312 18.01757812 C-12.73248374 17.35883041 -13.91570815 16.24913 -16 13.5 C-16.94411178 6.89121756 -16.94411178 6.89121756 -14.15234375 2.77734375 C-9.5340701 -0.55902991 -5.55272658 -0.15989527 0 0 Z " fill="#CFD8DC" transform="translate(136,323.5)"/>
<path d="M0 0 C-0.53367188 0.32871094 -1.06734375 0.65742188 -1.6171875 0.99609375 C-12.97616507 8.24775936 -23.08856658 17.41712998 -28.85986328 29.8527832 C-30.60967674 33.51318562 -32.07787553 35.3897288 -35.8203125 36.77734375 C-37.24758005 37.19133019 -38.68312478 37.57767604 -40.125 37.9375 C-40.85332031 38.14439453 -41.58164063 38.35128906 -42.33203125 38.56445312 C-47.49236919 40 -47.49236919 40 -50 40 C-46.17989674 25.4836076 -35.15726827 14.95776133 -23 7 C-19.42023496 5.05835086 -15.80137082 3.45463517 -12 2 C-11.14792969 1.67 -10.29585937 1.34 -9.41796875 1 C-3.46388459 -1.1546282 -3.46388459 -1.1546282 0 0 Z " fill="#FABF07" transform="translate(151,170)"/>
<path d="M0 0 C0.66 0.33 1.32 0.66 2 1 C0.875 2.9375 0.875 2.9375 -1 5 C-4.1875 5.75 -4.1875 5.75 -7 6 C-4.74259377 3.66475218 -2.7194239 1.81294927 0 0 Z " fill="#C1C9CC" transform="translate(447,351)"/>
</svg>
