<?xml version="1.0" encoding="UTF-8"?>
<svg version="1.1" xmlns="http://www.w3.org/2000/svg" width="512" height="512">
<path d="M0 0 C1.30904297 -0.01740234 1.30904297 -0.01740234 2.64453125 -0.03515625 C10.37234238 -0.00081042 17.71499692 1.55149908 24.5 5.375 C26.32075452 7.92405632 26.54392987 9.045526 26.125 12.1875 C26.65162151 16.6637828 28.91362368 17.78219223 32.3203125 20.50390625 C35.61377929 23.3310937 38.24891787 26.66583059 40.5 30.375 C40.5 31.035 40.5 31.695 40.5 32.375 C41.386875 32.271875 42.27375 32.16875 43.1875 32.0625 C46.5 32.375 46.5 32.375 49.25 34.25 C54.14108365 41.04317174 54.31371142 50.24805716 53.5 58.375 C50.64529281 74.5787073 43.96251676 87.27811243 30.5 97.375 C30.17 107.935 29.84 118.495 29.5 129.375 C118.6 129.375 207.7 129.375 299.5 129.375 C299.17 118.815 298.84 108.255 298.5 97.375 C294.87 94.075 291.24 90.775 287.5 87.375 C278.7773737 75.46792283 274.23809454 62.2157192 275.5 47.375 C278.31870963 31.2197671 285.146411 17.77455889 298.875 8 C312.11146997 -0.21172917 328.03585241 -1.65383635 343.1640625 1.0234375 C356.99163768 5.29210847 369.20627502 14.91195337 376.21484375 27.6015625 C382.30223946 40.73849549 384.02803493 55.97755012 379.46484375 69.8984375 C375.77330186 79.3738932 370.71066879 88.39872478 361.90161133 94.03857422 C359.18878469 96.67776817 358.89177822 98.13703311 358.78105164 101.85955811 C358.78498428 102.56074768 358.78891693 103.26193726 358.79296875 103.984375 C358.77784744 104.71118469 358.76272614 105.43799438 358.74714661 106.18682861 C358.70428432 108.49986833 358.69543412 110.81160281 358.6875 113.125 C358.66435419 114.69664925 358.63898865 116.26826748 358.61132812 117.83984375 C358.54849166 121.6850111 358.51614483 125.52936458 358.5 129.375 C359.62905762 129.34881592 360.75811523 129.32263184 361.92138672 129.2956543 C366.15181281 129.20444575 370.3821539 129.14749684 374.61328125 129.1003418 C376.43667262 129.07535721 378.25996548 129.04135721 380.08300781 128.99780273 C401.2536052 128.50505882 401.2536052 128.50505882 409.61865234 136.3659668 C415.51819045 142.47693801 417.87258376 148.47853705 417.88818359 156.92749023 C417.89606903 158.00702469 417.89606903 158.00702469 417.90411377 159.10836792 C417.9172242 161.46700302 417.90860712 163.82495281 417.8984375 166.18359375 C417.90046104 167.83594389 417.90337481 169.48829316 417.90713501 171.14064026 C417.91154642 174.59620707 417.90516647 178.0515405 417.89111328 181.50708008 C417.87403544 185.91966846 417.88386103 190.33170877 417.90183067 194.744277 C417.91271212 198.15452647 417.90920203 201.56464771 417.9014473 204.9749012 C417.89945662 206.60107553 417.90186444 208.22726178 417.90888596 209.85342216 C417.94471705 220.48438695 417.88411534 229.49754149 410.3125 237.76953125 C403.22101968 244.05099334 396.22470263 245.53317958 387.015625 245.47265625 C386.2922998 245.47164917 385.56897461 245.47064209 384.82373047 245.46960449 C382.13247076 245.46438887 379.44123372 245.45042762 376.75 245.4375 C370.7275 245.416875 364.705 245.39625 358.5 245.375 C358.5 260.555 358.5 275.735 358.5 291.375 C369.56834393 291.25690875 369.56834393 291.25690875 380.63623047 291.10473633 C391.05902138 291.00644562 400.77949898 290.99619673 408.875 298.5 C409.66648437 299.20382812 410.45796875 299.90765625 411.2734375 300.6328125 C418.36101798 309.36172741 418.09343281 318.61976889 418.03125 329.34375 C418.03394974 330.99084705 418.03783615 332.63794254 418.04284668 334.28503418 C418.04871913 337.72452073 418.04025218 341.16358964 418.02148438 344.60302734 C417.9986958 348.99094647 418.01183109 353.37788666 418.03577423 357.76576996 C418.05029364 361.16322072 418.04559828 364.560443 418.03526306 367.957901 C418.0326127 369.57487609 418.03580542 371.19187256 418.04518127 372.80882263 C418.09226193 383.20809347 417.16559125 390.76880161 411.375 399.625 C404.10362912 406.58022432 395.99698944 408.53864795 386.234375 408.47265625 C385.53070801 408.47164917 384.82704102 408.47064209 384.10205078 408.46960449 C381.48468384 408.46439005 378.86734021 408.45042881 376.25 408.4375 C370.3925 408.416875 364.535 408.39625 358.5 408.375 C358.5 426.855 358.5 445.335 358.5 464.375 C363.78 464.375 369.06 464.375 374.5 464.375 C381.25274437 466.59508034 385.60315408 470.41148909 389.5 476.375 C392.59698118 482.88823877 393.35673758 489.3835807 391.5 496.375 C388.694153 502.89105791 383.69774819 508.43463755 377.22094727 511.4284668 C372.55123757 513.05291404 367.83859074 512.78508557 362.9375 512.8125 C361.89658203 512.84537109 360.85566406 512.87824219 359.78320312 512.91210938 C352.16785545 512.96598 352.16785545 512.96598 348.78515625 509.97265625 C347.5 507.375 347.5 507.375 347.5 505.375 C340.24 505.375 332.98 505.375 325.5 505.375 C325.17 507.025 324.84 508.675 324.5 510.375 C320.64734569 512.94343621 317.42757634 512.69869148 312.95703125 512.7109375 C312.11460373 512.7175943 311.27217621 512.7242511 310.40422058 512.73110962 C308.61968161 512.74123621 306.83510478 512.74592664 305.05053711 512.74560547 C302.33968247 512.74995637 299.63048601 512.78621211 296.91992188 512.82421875 C295.1822972 512.83009164 293.44466483 512.83405787 291.70703125 512.8359375 C290.9046553 512.85030853 290.10227936 512.86467957 289.27558899 512.87948608 C282.70574543 512.82702042 277.56180031 510.95557433 272.51171875 506.69921875 C267.08946367 499.99737545 264.84620943 494.14090333 265.0859375 485.4453125 C265.9285349 479.19737331 268.67311918 473.6843601 273.375 469.4375 C282.85232003 463.18246878 287.05330809 464.375 299.5 464.375 C299.5 445.895 299.5 427.415 299.5 408.375 C210.4 408.375 121.3 408.375 29.5 408.375 C29.5 426.855 29.5 445.335 29.5 464.375 C34.78 464.375 40.06 464.375 45.5 464.375 C53.95862298 466.95384847 57.96570705 471.06670199 62.375 478.5625 C64.52836727 485.86002242 64.6350428 492.75339645 61.4375 499.75 C57.91352814 505.95937819 53.3288769 510.17803563 46.5 512.375 C43.53802382 512.67321111 40.58914643 512.66877732 37.61401367 512.66552734 C36.28620125 512.67560318 36.28620125 512.67560318 34.93156433 512.68588257 C32.01030841 512.70485258 29.0892824 512.70878638 26.16796875 512.7109375 C24.13161628 512.71736649 22.09526473 512.72409493 20.05891418 512.73110962 C15.79112609 512.74308016 11.52341893 512.74679071 7.25561523 512.74560547 C1.7981691 512.74540238 -3.6587557 512.77269514 -9.11607838 512.80714989 C-13.32238631 512.82943452 -17.52856913 512.83344251 -21.73493004 512.83238602 C-23.74629194 512.83473997 -25.75765739 512.84355188 -27.76896095 512.85905075 C-30.58828395 512.87874063 -33.40648741 512.87286072 -36.22583008 512.86083984 C-37.04948059 512.87207886 -37.8731311 512.88331787 -38.72174072 512.89489746 C-45.46228995 512.82220402 -50.68363799 510.88715566 -55.7421875 506.375 C-56.28101563 505.715 -56.81984375 505.055 -57.375 504.375 C-57.92929687 503.715 -58.48359375 503.055 -59.0546875 502.375 C-63.043988 496.85467067 -64.00233051 490.90394811 -63.25390625 484.15625 C-61.55698364 476.3474026 -56.94453456 470.82320265 -50.5 466.375 C-45.5 464.375 -45.5 464.375 -29.5 464.375 C-29.5 445.895 -29.5 427.415 -29.5 408.375 C-41.22670095 408.53251736 -41.22670095 408.53251736 -52.95263672 408.73535156 C-63.00534281 408.85053309 -70.44756112 407.95144116 -79.25 402.75 C-85.47357215 396.18067384 -88.60376421 389.28487425 -88.69287109 380.30834961 C-88.70104858 379.59245667 -88.70922607 378.87656372 -88.71765137 378.13897705 C-88.74247042 375.768441 -88.75901746 373.39796495 -88.7734375 371.02734375 C-88.77876118 370.2151343 -88.78408485 369.40292484 -88.78956985 368.56610298 C-88.81629358 364.2622586 -88.835666 359.95844307 -88.85009766 355.65454102 C-88.86340412 352.1054488 -88.89119604 348.55693601 -88.93212891 345.00805664 C-88.98167176 340.712157 -89.00624565 336.41678045 -89.01332474 332.12060738 C-89.0200037 330.49044649 -89.0351375 328.86029573 -89.05921555 327.230299 C-89.20817535 316.53088846 -88.4689511 308.16076498 -81.21875 299.71875 C-80.4865625 299.1103125 -79.754375 298.501875 -79 297.875 C-78.2678125 297.2459375 -77.535625 296.616875 -76.78125 295.96875 C-70.29892068 291.43999938 -63.16036645 291.22145994 -55.4765625 291.27734375 C-54.48305786 291.27885437 -54.48305786 291.27885437 -53.46948242 291.28039551 C-51.02130372 291.28558411 -48.57314992 291.29954501 -46.125 291.3125 C-40.63875 291.333125 -35.1525 291.35375 -29.5 291.375 C-29.5 276.195 -29.5 261.015 -29.5 245.375 C-41.60083231 245.53264513 -41.60083231 245.53264513 -53.70092773 245.73535156 C-69.77973863 245.91505133 -69.77973863 245.91505133 -76.5 241.375 C-77.5725 240.653125 -78.645 239.93125 -79.75 239.1875 C-85.95041523 232.84616624 -88.60569487 226.09038097 -88.69287109 217.30834961 C-88.70104858 216.59245667 -88.70922607 215.87656372 -88.71765137 215.13897705 C-88.74247042 212.768441 -88.75901746 210.39796495 -88.7734375 208.02734375 C-88.77876118 207.2151343 -88.78408485 206.40292484 -88.78956985 205.56610298 C-88.81629358 201.2622586 -88.835666 196.95844307 -88.85009766 192.65454102 C-88.86340412 189.1054488 -88.89119604 185.55693601 -88.93212891 182.00805664 C-88.98167176 177.712157 -89.00624565 173.41678045 -89.01332474 169.12060738 C-89.0200037 167.49044649 -89.0351375 165.86029573 -89.05921555 164.230299 C-89.20203418 153.97199323 -88.89196144 145.14527434 -81.50985718 137.245224 C-74.75822806 130.76988882 -68.40036592 128.90926808 -59.28515625 129.08203125 C-58.42941513 129.08627609 -57.57367401 129.09052094 -56.69200134 129.09489441 C-53.9818358 129.11157211 -51.27243752 129.14920295 -48.5625 129.1875 C-46.7155056 129.20256098 -44.86849944 129.2162469 -43.02148438 129.22851562 C-38.51403116 129.26143974 -34.00714528 129.31314531 -29.5 129.375 C-29.44491018 124.80216225 -29.44267308 120.23334956 -29.48779297 115.66040039 C-29.49586579 114.10767468 -29.4899113 112.55480633 -29.46923828 111.00219727 C-29.09688631 101.99531488 -29.09688631 101.99531488 -32.23779297 93.86645508 C-34.24219396 92.12426706 -36.24535764 90.76691602 -38.5 89.375 C-48.004142 80.31711847 -52.33671218 68.24852662 -52.83227539 55.39770508 C-53.14166907 39.3923282 -48.26597832 26.39205189 -37.3125 14.625 C-26.7251582 4.5778287 -14.45388758 -0.19214917 0 0 Z M29.5 245.375 C29.5 260.555 29.5 275.735 29.5 291.375 C36.77611328 291.43107422 36.77611328 291.43107422 44.19921875 291.48828125 C47.27542591 291.51856353 50.35157539 291.54971294 53.42773438 291.58398438 C58.30848261 291.63827817 63.18911674 291.6893892 68.07006836 291.72143555 C72.00599859 291.74747839 75.94154495 291.78788729 79.87723732 291.83818626 C81.3774519 291.85484843 82.87773286 291.86636678 84.37802696 291.87261391 C86.48248746 291.88226249 88.58596738 291.91032826 90.69018555 291.94262695 C92.48555 291.95928154 92.48555 291.95928154 94.31718445 291.97627258 C97.84197486 292.41784092 99.74099549 293.15040818 102.5 295.375 C102.995 297.355 102.995 297.355 103.5 299.375 C111.42 299.375 119.34 299.375 127.5 299.375 C128.16 297.725 128.82 296.075 129.5 294.375 C132.80823383 291.85629083 136.24069585 292.11484579 140.28302002 292.0965271 C141.30495111 292.0878385 141.30495111 292.0878385 142.34752727 292.07897437 C144.62919382 292.0619762 146.91065807 292.05909807 149.19238281 292.05615234 C150.82842505 292.04685403 152.46446253 292.0366855 154.10049438 292.02571106 C158.54225454 291.99838606 162.98398294 291.98325424 167.42580509 291.97028303 C172.06765961 291.95466344 176.70944916 291.92786949 181.35125732 291.9022522 C190.14134279 291.85544365 198.93144044 291.81870958 207.72158694 291.78557932 C217.72878456 291.74737261 227.73591697 291.69795865 237.74305964 291.64759517 C258.3286643 291.54424441 278.91429633 291.45647376 299.5 291.375 C299.5 276.195 299.5 261.015 299.5 245.375 C210.4 245.375 121.3 245.375 29.5 245.375 Z " fill="#010100" transform="translate(91.5,-0.375)"/>
<path d="M0 0 C3.91610484 -0.17426756 7.83121497 -0.28084155 11.75 -0.375 C13.41675781 -0.45041016 13.41675781 -0.45041016 15.1171875 -0.52734375 C23.17694672 -0.67300205 23.17694672 -0.67300205 25.62304688 1.32714844 C26.703125 2.9609375 26.703125 2.9609375 28 6 C29.61780157 7.61780157 31.45635518 7.22272147 33.69140625 7.31640625 C34.63564453 7.35830078 35.57988281 7.40019531 36.55273438 7.44335938 C38.04256836 7.50233398 38.04256836 7.50233398 39.5625 7.5625 C40.55958984 7.60568359 41.55667969 7.64886719 42.58398438 7.69335938 C45.05584412 7.7998031 47.52783337 7.9010214 50 8 C48.58542582 9.65062732 47.17076597 11.30118129 45.75571823 12.95140266 C44.63066642 14.26412933 43.50640916 15.57753761 42.38316727 16.89181328 C31.4340143 29.68860915 20.17680267 42.18181117 8.625 54.4375 C7.76169823 55.35419716 6.89839645 56.27089432 6.00893402 57.21537018 C-31.84651932 97.13702614 -31.84651932 97.13702614 -57.94302368 98.44084167 C-71.40297847 98.71839251 -85.06283689 96.56483439 -98 93 C-93.637238 87.79724609 -89.07057864 82.89179325 -84.30151367 78.06103516 C-83.55431564 77.30084076 -82.80711761 76.54064636 -82.03727722 75.75741577 C-74.28761936 67.88187817 -66.50346168 60.04033851 -58.71655273 52.20166016 C-55.02523264 48.48350092 -51.34525498 44.75463425 -47.67456055 41.01611328 C-43.23083516 36.49051698 -38.76785041 31.9847893 -34.29046059 27.49250412 C-32.59113685 25.78093341 -30.89871464 24.06248135 -29.21346092 22.33705521 C-26.85625144 19.92645252 -24.47509697 17.54221793 -22.08666992 15.16259766 C-21.05530914 14.09045013 -21.05530914 14.09045013 -20.00311279 12.99664307 C-15.80347461 8.87617684 -12.93422442 7.20301138 -6.97742176 7.16225243 C-4.67622815 7.1342848 -4.67622815 7.1342848 -2 5 C-0.79549696 2.44816596 -0.79549696 2.44816596 0 0 Z " fill="#FDD05A" transform="translate(195,299)"/>
<path d="M0 0 C21.12 0 42.24 0 64 0 C62.43455584 3.13088832 61.28701062 5.0385552 59.07711792 7.59405518 C58.47703352 8.28954027 57.87694912 8.98502537 57.25868034 9.70158577 C56.59952188 10.45393942 55.94036343 11.20629307 55.26123047 11.98144531 C54.56273043 12.78158995 53.86423038 13.58173458 53.14456367 14.40612602 C43.93748036 24.88709852 34.47263259 35.12699236 24.875 45.25 C24.41652081 45.73476901 23.95804163 46.21953802 23.48566914 46.718997 C-17.83650987 90.3618882 -17.83650987 90.3618882 -44.23580933 91.73046875 C-48.56414796 91.82132207 -52.82008426 91.55910783 -57.125 91.125 C-58.16786037 91.02011009 -58.16786037 91.02011009 -59.23178864 90.9131012 C-67.66243982 89.99656231 -75.86078508 88.39156813 -84 86 C-84 85.34 -84 84.68 -84 84 C-82.52341366 82.54230213 -82.52341366 82.54230213 -80.48606873 80.85298157 C-76.19616261 77.20230084 -72.19845692 73.33984516 -68.22290039 69.35229492 C-67.49182068 68.62296753 -66.76074097 67.89364014 -66.00750732 67.14221191 C-63.61838753 64.75745449 -61.23289781 62.36910471 -58.84765625 59.98046875 C-57.1801133 58.31360001 -55.51242197 56.64687969 -53.84458923 54.9803009 C-50.3640855 51.50126615 -46.88538391 48.02044214 -43.40795898 44.53833008 C-38.9434217 40.06806929 -34.47437422 35.60234859 -30.00399113 31.13793468 C-26.56650922 27.70405732 -23.13140143 24.26781297 -19.69701958 20.83083534 C-18.04906111 19.18220869 -16.40035644 17.5343276 -14.75090218 15.88719749 C-12.4552913 13.59411423 -10.16288994 11.29787081 -7.87133789 9.00073242 C-6.84362526 7.97605614 -6.84362526 7.97605614 -5.79515076 6.93067932 C-4.86383835 5.99513718 -4.86383835 5.99513718 -3.91371155 5.04069519 C-3.3719481 4.49855472 -2.83018465 3.95641424 -2.27200413 3.39784527 C-0.89004591 2.00610121 -0.89004591 2.00610121 0 0 Z " fill="#FBCE59" transform="translate(351,144)"/>
<path d="M0 0 C1.04286037 0.10488991 1.04286037 0.10488991 2.10678864 0.2118988 C10.53743982 1.12843769 18.73578508 2.73343187 26.875 5.125 C22.52521483 10.3284382 17.95322868 15.1801012 13.14135742 19.95629883 C12.01591522 21.07955063 12.01591522 21.07955063 10.86773682 22.22549438 C9.24997417 23.83947163 7.63105797 25.4522933 6.01109886 27.06406593 C3.44977944 29.61256697 0.89164522 32.16422713 -1.66569519 34.71672058 C-7.08682803 40.12646094 -12.51188837 45.53225208 -17.9375 50.9375 C-24.24271342 57.21913164 -30.54631682 63.5023613 -36.84573936 69.78980064 C-39.37037791 72.30794008 -41.89799979 74.82305905 -44.42573547 77.33808899 C-45.96341368 78.87213693 -47.50095294 80.40632417 -49.03833008 81.94067383 C-50.09880806 82.99340233 -50.09880806 82.99340233 -51.18070984 84.06739807 C-52.14160019 85.02818268 -52.14160019 85.02818268 -53.12190247 86.00837708 C-53.96056713 86.84371082 -53.96056713 86.84371082 -54.81617451 87.69591999 C-56.23226657 89.11095383 -56.23226657 89.11095383 -57.125 91.125 C-78.245 91.125 -99.365 91.125 -121.125 91.125 C-119.55955584 87.99411168 -118.41201062 86.0864448 -116.20211792 83.53094482 C-115.60203352 82.83545973 -115.00194912 82.13997463 -114.38368034 81.42341423 C-113.72452188 80.67106058 -113.06536343 79.91870693 -112.38623047 79.14355469 C-111.68773043 78.34341005 -110.98923038 77.54326542 -110.26956367 76.71887398 C-101.06248036 66.23790148 -91.59763259 55.99800764 -82 45.875 C-81.54152081 45.39023099 -81.08304163 44.90546198 -80.61066914 44.406003 C-35.20468858 -3.55004184 -35.20468858 -3.55004184 0 0 Z " fill="#746C6C" transform="translate(303.125,138.875)"/>
<path d="M0 0 C2.59270265 0.63422586 5.17014178 1.29679479 7.74021912 2.01660156 C6.32761796 3.66545333 4.91488127 5.31418914 3.50153732 6.96240425 C2.36958994 8.28257641 1.23816972 9.60320086 0.10741043 10.92439079 C-11.00200759 23.88362249 -22.42202872 36.53737974 -34.13478088 48.95410156 C-35.00995991 49.88267597 -35.88513893 50.81125038 -36.78683853 51.76796341 C-75.15994832 92.20735612 -75.15994832 92.20735612 -101.27284241 93.52748108 C-114.71300348 93.80786224 -128.35737073 91.63020576 -141.25978088 88.01660156 C-139.84717972 86.3677498 -138.43444304 84.71901399 -137.02109909 83.07079887 C-135.88915171 81.75062671 -134.75773149 80.43000227 -133.6269722 79.10881233 C-122.51755418 66.14958064 -111.09753305 53.49582338 -99.38478088 41.07910156 C-98.50960186 40.15052715 -97.63442284 39.22195274 -96.73272324 38.26523972 C-66.86403236 6.78820471 -43.77969812 -9.56372277 0 0 Z " fill="#FCCF5A" transform="translate(237.25978088378906,141.9833984375)"/>
<path d="M0 0 C4.16589296 1.75802532 6.59872617 3.13128105 9 7 C7.71412227 9.76314645 6.31757944 12.0107103 4.34286499 14.32830811 C3.80168187 14.96489192 3.26049875 15.60147573 2.70291615 16.25734997 C2.10921065 16.94425065 1.51550516 17.63115133 0.90380859 18.33886719 C-0.04155872 19.43670139 -0.04155872 19.43670139 -1.00602436 20.55671406 C-9.32823084 30.15446248 -17.91053439 39.50811569 -26.625 48.75 C-27.4582291 49.63523472 -28.29145821 50.52046944 -29.14993668 51.43252945 C-65.6952279 89.99802159 -65.6952279 89.99802159 -91.74554443 91.24020386 C-96.0859353 91.32397885 -100.36644923 91.08229588 -104.6875 90.6875 C-105.38873238 90.62356552 -106.08996475 90.55963104 -106.81244659 90.49375916 C-115.35091113 89.65265788 -123.69864104 88.17639487 -132 86 C-132 85.34 -132 84.68 -132 84 C-130.50420475 82.5498724 -130.50420475 82.5498724 -128.45191956 80.86643982 C-124.18970396 77.23819261 -120.48245336 73.31583074 -116.76928711 69.13696289 C-109.83378514 61.42919813 -102.78531597 53.83850088 -95.65946102 46.30642033 C-91.3731379 41.76531325 -87.14004733 37.19229118 -83.00415039 32.51342773 C-58.91551772 5.35280583 -37.51146422 -9.4299551 0 0 Z " fill="#746C6C" transform="translate(484,144)"/>
<path d="M0 0 C1.54803013 0.40390386 3.09483539 0.81279257 4.63720703 1.23779297 C3.22263285 2.88842029 1.807973 4.53897426 0.39292526 6.18919563 C-0.73212655 7.5019223 -1.85638381 8.81533058 -2.9796257 10.12960625 C-13.92877867 22.92640212 -25.1859903 35.41960414 -36.73779297 47.67529297 C-37.60109474 48.59199013 -38.46439651 49.50868729 -39.35385895 50.45316315 C-77.20931229 90.37481911 -77.20931229 90.37481911 -103.30581665 91.67863464 C-116.76577143 91.95618548 -130.42562986 89.80262736 -143.36279297 86.23779297 C-141.94821878 84.58716565 -140.53355894 82.93661167 -139.1185112 81.2863903 C-137.99345939 79.97366364 -136.86920212 78.66025536 -135.74596024 77.34597969 C-124.79680727 64.54918382 -113.53959564 52.0559818 -101.98779297 39.80029297 C-101.1244912 38.88359581 -100.26118942 37.96689865 -99.37172699 37.02242279 C-68.65367114 4.62773328 -44.7277139 -10.76940698 0 0 Z " fill="#FDCF5A" transform="translate(410.36279296875,305.76220703125)"/>
<path d="M0 0 C1.54803013 0.40390386 3.09483539 0.81279257 4.63720703 1.23779297 C3.22263285 2.88842029 1.807973 4.53897426 0.39292526 6.18919563 C-0.73212655 7.5019223 -1.85638381 8.81533058 -2.9796257 10.12960625 C-13.92877867 22.92640212 -25.1859903 35.41960414 -36.73779297 47.67529297 C-37.60109474 48.59199013 -38.46439651 49.50868729 -39.35385895 50.45316315 C-77.20931229 90.37481911 -77.20931229 90.37481911 -103.30581665 91.67863464 C-116.76577143 91.95618548 -130.42562986 89.80262736 -143.36279297 86.23779297 C-141.94821878 84.58716565 -140.53355894 82.93661167 -139.1185112 81.2863903 C-137.99345939 79.97366364 -136.86920212 78.66025536 -135.74596024 77.34597969 C-124.79680727 64.54918382 -113.53959564 52.0559818 -101.98779297 39.80029297 C-101.1244912 38.88359581 -100.26118942 37.96689865 -99.37172699 37.02242279 C-68.65367114 4.62773328 -44.7277139 -10.76940698 0 0 Z " fill="#756D6D" transform="translate(325.36279296875,305.76220703125)"/>
<path d="M0 0 C1.05184856 0.09590172 1.05184856 0.09590172 2.12494659 0.19374084 C10.66341113 1.03484212 19.01114104 2.51110513 27.3125 4.6875 C16.0762079 17.88970127 4.30331663 30.60619212 -7.64607906 43.16338253 C-12.07370793 47.82350464 -16.44716686 52.51586095 -20.71899414 57.31958008 C-51.75501795 92.114097 -51.75501795 92.114097 -73.890378 93.42419147 C-102.97179918 94.04018997 -102.97179918 94.04018997 -112 85.5 C-112.556875 84.901875 -113.11375 84.30375 -113.6875 83.6875 C-112.40162227 80.92435355 -111.00507944 78.6767897 -109.03036499 76.35919189 C-108.48918187 75.72260808 -107.94799875 75.08602427 -107.39041615 74.43015003 C-106.79671065 73.74324935 -106.20300516 73.05634867 -105.59130859 72.34863281 C-104.96106372 71.61674335 -104.33081884 70.88485388 -103.68147564 70.13078594 C-95.35926916 60.53303752 -86.77696561 51.17938431 -78.0625 41.9375 C-77.2292709 41.05226528 -76.39604179 40.16703056 -75.53756332 39.25497055 C-53.17695496 15.6582817 -34.10575625 -3.11609672 0 0 Z " fill="#746D6D" transform="translate(132.6875,139.3125)"/>
<path d="M0 0 C1.05184856 0.09590172 1.05184856 0.09590172 2.12494659 0.19374084 C10.66341113 1.03484212 19.01114104 2.51110513 27.3125 4.6875 C16.2073659 17.71607192 4.67564433 30.34732924 -7.09949112 42.7722311 C-11.44796993 47.36854622 -15.73805617 51.99798904 -19.91992188 56.74682617 C-49.52976782 90.25911155 -49.52976782 90.25911155 -70.20507812 92.30517578 C-78.99190532 92.84684839 -87.77902902 92.50554707 -96.53417969 91.62915039 C-97.45915504 91.53739344 -98.3841304 91.44563648 -99.33713531 91.35109901 C-105.65279205 90.46085241 -109.31835586 88.31687175 -113.6875 83.6875 C-112.40162227 80.92435355 -111.00507944 78.6767897 -109.03036499 76.35919189 C-108.48918187 75.72260808 -107.94799875 75.08602427 -107.39041615 74.43015003 C-106.79671065 73.74324935 -106.20300516 73.05634867 -105.59130859 72.34863281 C-104.96106372 71.61674335 -104.33081884 70.88485388 -103.68147564 70.13078594 C-95.35926916 60.53303752 -86.77696561 51.17938431 -78.0625 41.9375 C-77.2292709 41.05226528 -76.39604179 40.16703056 -75.53756332 39.25497055 C-53.17695496 15.6582817 -34.10575625 -3.11609672 0 0 Z " fill="#756D6D" transform="translate(132.6875,302.3125)"/>
<path d="M0 0 C3.70907292 1.91688887 5.50669728 3.01339456 7.375 6.75 C7.58125 7.4925 7.7875 8.235 8 9 C-3.02176071 21.95555681 -14.3515642 34.60431046 -26 47 C-26.84788589 47.90267105 -27.69577179 48.8053421 -28.5693512 49.73536682 C-65.79707271 89.08423789 -65.79707271 89.08423789 -91.82189941 90.32287598 C-96.15880951 90.40412757 -100.43345021 90.15401205 -104.75 89.75 C-105.45024292 89.68494263 -106.15048584 89.61988525 -106.87194824 89.55285645 C-115.39493545 88.6997189 -123.72124073 87.20712475 -132 85 C-120.88535975 71.95016169 -109.28867551 59.34240403 -97.48438454 46.9152689 C-93.12344113 42.31673225 -88.81815419 37.68576523 -84.61669922 32.94067383 C-60.69629442 6.01062711 -37.5675862 -10.75313097 0 0 Z " fill="#756D6D" transform="translate(485,307)"/>
<path d="M0 0 C3.93936605 1.22418547 7.53555788 0.29041784 11.16015625 -1.44140625 C11.75441406 -1.75464844 12.34867188 -2.06789063 12.9609375 -2.390625 C19.07902961 2.57838382 25.40177516 7.93188798 27.9609375 15.609375 C27.30609375 15.99802734 26.65125 16.38667969 25.9765625 16.78710938 C23.73775684 18.4309131 23.73775684 18.4309131 23.5703125 20.97851562 C23.61671875 21.89826172 23.663125 22.81800781 23.7109375 23.765625 C23.741875 24.78914063 23.7728125 25.81265625 23.8046875 26.8671875 C23.90735166 28.99746877 24.01147375 31.12768038 24.1171875 33.2578125 C24.43253736 43.79575374 21.84710142 52.39726526 15.00390625 60.5390625 C6.68928062 68.96497375 -2.20386393 72.60750935 -13.9140625 73.109375 C-24.99412522 72.80893946 -33.04657608 68.57892909 -40.9140625 60.92578125 C-48.43756522 52.72461008 -51.83944239 42.65702722 -51.44140625 31.49609375 C-49.96465777 20.90078183 -45.02338774 12.59565959 -37.0390625 5.609375 C-25.70760737 -2.59910379 -13.2983504 -5.24024216 0 0 Z " fill="#FB3480" transform="translate(105.0390625,17.390625)"/>
<path d="M0 0 C8.32143809 7.12561662 14.07528773 15.46680865 15.45703125 26.50390625 C15.88715639 36.38244688 13.28103499 46.55157747 6.8125 54.17578125 C6.25949219 54.75972656 5.70648438 55.34367187 5.13671875 55.9453125 C4.57339844 56.56019531 4.01007813 57.17507812 3.4296875 57.80859375 C-3.64171854 64.76090242 -12.69259984 68.17793258 -22.55078125 68.4453125 C-33.9855998 67.90930538 -42.80892474 64.08070246 -50.90625 55.875 C-58.45336256 46.89570616 -60.76086421 37.30159243 -60.2421875 25.75 C-59.23516465 15.63824474 -54.16955337 7.53813627 -46.5390625 0.93359375 C-32.45721905 -9.61120896 -14.5524818 -10.44284505 0 0 Z " fill="#FB3480" transform="translate(442.86328125,22.0546875)"/>
<path d="M0 0 C0.81141449 -0.0065712 1.62282898 -0.0131424 2.45883179 -0.01991272 C5.15647463 -0.03969711 7.85406163 -0.05132071 10.55175781 -0.0612793 C11.47133522 -0.06535482 12.39091263 -0.06943035 13.33835602 -0.07362938 C18.20701373 -0.09451374 23.07564307 -0.10880422 27.94433594 -0.11816406 C32.97619644 -0.12922332 38.00761407 -0.1636108 43.03931808 -0.20333576 C46.90493598 -0.22947476 50.77044805 -0.23785356 54.63614655 -0.24144554 C56.49090815 -0.24631987 58.34566478 -0.2579579 60.20034027 -0.27648354 C62.79797946 -0.30081373 65.39446941 -0.29992119 67.9921875 -0.29296875 C69.14105942 -0.31218384 69.14105942 -0.31218384 70.31314087 -0.33178711 C74.00997535 -0.29574453 76.07066047 0.05823493 79.20880127 2.08137512 C81.64712053 4.5787376 82.18236255 5.52431962 82.56738281 8.98950195 C82.18141988 12.92632383 81.02091602 14.41096875 78.25488281 17.17700195 C73.75736214 18.67617551 69.11946626 18.57041806 64.41503906 18.7824707 C61.1576402 18.94618746 58.36541187 19.14015893 55.25488281 20.17700195 C54.92488281 22.15700195 54.59488281 24.13700195 54.25488281 26.17700195 C46.66488281 26.17700195 39.07488281 26.17700195 31.25488281 26.17700195 C30.26488281 24.19700195 29.27488281 22.21700195 28.25488281 20.17700195 C25.23581956 18.66747033 22.10907713 19.0411162 18.79785156 19.03637695 C17.27765432 19.01804624 15.75747162 18.99847568 14.23730469 18.9777832 C11.84081556 18.94883595 9.44525919 18.92700254 7.04858398 18.92651367 C4.73499832 18.92317137 2.42356275 18.88857904 0.11035156 18.84887695 C-0.6012764 18.85594666 -1.31290436 18.86301636 -2.0460968 18.87030029 C-5.90363932 18.7763313 -7.6118919 18.28297636 -10.66577148 15.85375977 C-13.29674839 12.46688284 -13.89815299 10.46200439 -13.74511719 6.17700195 C-11.37011719 3.30200195 -11.37011719 3.30200195 -8.74511719 1.17700195 C-6.74738551 -0.82072972 -2.73701879 0.00950836 0 0 Z " fill="#756D6D" transform="translate(385.7451171875,478.822998046875)"/>
<path d="M0 0 C1.20271042 -0.00744736 1.20271042 -0.00744736 2.42971802 -0.01504517 C5.08946585 -0.02968228 7.74915401 -0.03647174 10.40893555 -0.04199219 C12.25497947 -0.04774285 14.10102338 -0.0535006 15.94706726 -0.05926514 C19.82164794 -0.06977987 23.69620784 -0.07561928 27.57080078 -0.07910156 C32.53417183 -0.08458393 37.49726822 -0.10860444 42.46055317 -0.13707352 C46.27555643 -0.1557043 50.09049364 -0.16090576 53.90553856 -0.16243744 C55.73516528 -0.16546406 57.56479083 -0.17349291 59.39437294 -0.18662262 C61.9558355 -0.2036906 64.51662853 -0.20180102 67.078125 -0.1953125 C67.83311783 -0.20452728 68.58811066 -0.21374207 69.36598206 -0.22323608 C73.83519501 -0.18779869 76.67063171 0.4193547 80.2331543 3.16113281 C82.30553581 6.12167784 82.75537061 8.59265464 82.2331543 12.16113281 C80.06628148 15.44880191 79.00475121 16.90393384 75.2331543 18.16113281 C72.59799375 18.2726354 69.98857298 18.32877811 67.3527832 18.33813477 C66.55083023 18.34470596 65.74887726 18.35127716 64.92262268 18.35804749 C62.26831977 18.37776123 59.61407332 18.38943759 56.9597168 18.39941406 C55.59965075 18.40552735 55.59965075 18.40552735 54.21210861 18.41176414 C49.41476418 18.43261474 44.61744829 18.44692192 39.82006836 18.45629883 C34.86449122 18.46737286 29.90936191 18.50178699 24.95394325 18.54147053 C21.1432308 18.56760532 17.3326257 18.57598777 13.52183151 18.57958031 C11.6949803 18.58445287 9.8681341 18.59608592 8.04137039 18.6146183 C5.48465595 18.63894776 2.92910904 18.63805658 0.37231445 18.63110352 C-0.38110733 18.64391357 -1.13452911 18.65672363 -1.91078186 18.66992188 C-5.58000029 18.63357158 -7.60070716 18.26852201 -10.71304321 16.25675964 C-13.15992067 13.76005313 -13.69378631 12.81866734 -14.0793457 9.34863281 C-13.69520212 5.43036831 -12.47428254 3.94820014 -9.7668457 1.16113281 C-6.67078094 -0.38689957 -3.39853598 0.0049918 0 0 Z " fill="#756D6D" transform="translate(57.766845703125,478.8388671875)"/>
<path d="M0 0 C1.05833542 0.00424484 2.11667084 0.00848969 3.20707703 0.01286316 C6.57971887 0.02962513 9.9517582 0.06727363 13.32421875 0.10546875 C15.61392365 0.12051876 17.90363793 0.13420661 20.19335938 0.14648438 C25.79968395 0.17952052 31.40565829 0.22969558 37.01171875 0.29296875 C31.5810323 6.89380632 25.56753205 12.88292473 19.5234375 18.9140625 C18.41325024 20.02492433 17.30321137 21.1359345 16.1933136 22.24708557 C13.88106491 24.56080034 11.56703746 26.87271691 9.25170898 29.18334961 C6.27785058 32.15147113 3.30855815 35.12411384 0.34054852 38.09808254 C-1.94379252 40.3860246 -4.23049427 42.67159518 -6.5179348 44.95643806 C-7.61475293 46.05258772 -8.71082487 47.14948454 -9.80614662 48.24712944 C-11.32840833 49.77191442 -12.85380981 51.29348504 -14.38012695 52.81420898 C-15.24805374 53.68134018 -16.11598053 54.54847137 -17.01020813 55.44187927 C-18.98828125 57.29296875 -18.98828125 57.29296875 -19.98828125 57.29296875 C-20.08988055 50.56702609 -20.15983036 43.84128207 -20.20800781 37.11474609 C-20.22809642 34.82756149 -20.25537253 32.54042807 -20.29003906 30.25341797 C-20.33867683 26.96178541 -20.36127804 23.67083318 -20.37890625 20.37890625 C-20.39955139 19.35993256 -20.42019653 18.34095886 -20.44146729 17.29110718 C-20.44329909 11.46724378 -20.10357113 7.77974127 -15.98828125 3.29296875 C-11.38366383 -0.85069655 -5.84787584 -0.0884138 0 0 Z " fill="#FACD59" transform="translate(37.98828125,143.70703125)"/>
<path d="M0 0 C0.10172277 6.56521314 0.17160061 13.13022175 0.21972656 19.69604492 C0.23979685 21.92789302 0.26705933 24.15968882 0.30175781 26.39135742 C0.35047672 29.60608857 0.37301516 32.82012227 0.390625 36.03515625 C0.41127014 37.02709488 0.43191528 38.01903351 0.45318604 39.04103088 C0.45517458 45.23092879 -0.1351276 49.06373745 -4 54 C-9.17347495 57.86217347 -14.68252366 57.38900972 -20.8671875 57.29296875 C-21.90191193 57.28872391 -22.93663635 57.28447906 -24.00271606 57.28010559 C-27.29374681 57.26336996 -30.58415566 57.22572649 -33.875 57.1875 C-36.1119703 57.17244658 -38.34895023 57.15875933 -40.5859375 57.14648438 C-46.05750233 57.11348322 -51.52870672 57.06333468 -57 57 C-51.56931355 50.39916243 -45.5558133 44.41004402 -39.51171875 38.37890625 C-38.40153149 37.26804442 -37.29149262 36.15703425 -36.18159485 35.04588318 C-33.86934616 32.73216841 -31.55531871 30.42025184 -29.23999023 28.10961914 C-26.26613183 25.14149762 -23.2968394 22.16885491 -20.32882977 19.19488621 C-18.04448873 16.90694415 -15.75778698 14.62137357 -13.47034645 12.33653069 C-12.37352832 11.24038103 -11.27745638 10.14348421 -10.18213463 9.04583931 C-8.65987292 7.52105433 -7.13447144 5.99948371 -5.6081543 4.47875977 C-4.74022751 3.61162857 -3.87230072 2.74449738 -2.97807312 1.85108948 C-1 0 -1 0 0 0 Z " fill="#F6BC42" transform="translate(494,173)"/>
<path d="M0 0 C9.24 0 18.48 0 28 0 C28 18.81 28 37.62 28 57 C18.76 57 9.52 57 0 57 C0 38.19 0 19.38 0 0 Z " fill="#F49402" transform="translate(406,407)"/>
<path d="M0 0 C9.24 0 18.48 0 28 0 C28 18.81 28 37.62 28 57 C18.76 57 9.52 57 0 57 C0 38.19 0 19.38 0 0 Z " fill="#F49301" transform="translate(78,407)"/>
<path d="M0 0 C0.07612856 6.60189418 0.12863283 13.20367494 0.16479492 19.8059082 C0.17987182 22.05139394 0.20033653 24.29685029 0.22631836 26.54223633 C0.26274918 29.77172099 0.27973755 33.00081594 0.29296875 36.23046875 C0.30845261 37.23272995 0.32393646 38.23499115 0.33988953 39.2676239 C0.34150099 45.95688318 -0.55183687 49.2002215 -5.00073242 54.28808594 C-9.56548384 56.89354275 -13.82435358 56.49472262 -18.98828125 56.390625 C-20.04661667 56.38496521 -21.10495209 56.37930542 -22.19535828 56.37347412 C-25.56820326 56.35112348 -28.9399773 56.30092776 -32.3125 56.25 C-34.60219818 56.22993338 -36.89191304 56.2116829 -39.18164062 56.1953125 C-44.78812444 56.15126305 -50.3939857 56.08436354 -56 56 C-50.6310585 49.48110123 -44.70230846 43.55642411 -38.73046875 37.59765625 C-37.64270175 36.50921464 -36.55508315 35.42062471 -35.46760559 34.33189392 C-33.20243515 32.06525765 -30.93548679 29.80041916 -28.66723633 27.53686523 C-25.75391151 24.62927813 -22.84515429 21.71716913 -19.93767834 18.80373478 C-17.69966038 16.56211584 -15.45928188 14.32286844 -13.21816444 12.08434868 C-12.14367502 11.0105277 -11.0699317 9.93595964 -9.99693871 8.86064339 C-8.50580975 7.36699113 -7.01154177 5.87655404 -5.51635742 4.38696289 C-4.66619553 3.53759659 -3.81603363 2.68823029 -2.94010925 1.81312561 C-1 0 -1 0 0 0 Z " fill="#FED05A" transform="translate(494,336)"/>
<path d="M0 0 C0.96069397 0.00022659 1.92138794 0.00045319 2.91119385 0.00068665 C4.45513824 0.02391243 4.45513824 0.02391243 6.03027344 0.04760742 C7.61989899 0.05397469 7.61989899 0.05397469 9.24163818 0.06047058 C12.62456731 0.07725587 16.00689953 0.11490862 19.38964844 0.15307617 C21.68391066 0.16812317 23.97818223 0.18181154 26.27246094 0.1940918 C31.89506024 0.22715889 37.51731169 0.27735714 43.13964844 0.34057617 C38.36321353 6.13705477 33.16036312 11.43972495 27.83162498 16.72376442 C26.27840781 18.26407406 24.72846278 19.80761238 23.17927551 21.35197449 C19.89805616 24.62185119 16.61288401 27.88773846 13.32714844 31.15307617 C9.50009622 34.95650804 5.67469174 38.76156791 1.85344887 42.57083702 C0.32597451 44.09182801 -1.2044765 45.60978016 -2.73506165 47.12763977 C-4.11736214 48.50498543 -4.11736214 48.50498543 -5.52758789 49.91015625 C-6.34222 50.71955154 -7.15685211 51.52894684 -7.99617004 52.36286926 C-9.9134025 54.20662052 -9.9134025 54.20662052 -10.86035156 56.34057617 C-11.52035156 56.34057617 -12.18035156 56.34057617 -12.86035156 56.34057617 C-12.96196445 49.75705176 -13.03190626 43.1737304 -13.08007812 36.58959961 C-13.10016472 34.35091596 -13.12743936 32.11228459 -13.16210938 29.8737793 C-13.2107562 26.65164268 -13.2333503 23.43020116 -13.25097656 20.20776367 C-13.2716217 19.21066376 -13.29226685 18.21356384 -13.3135376 17.18624878 C-13.31540066 11.38647541 -12.87277172 7.86269165 -8.86035156 3.34057617 C-5.8520917 0.6598785 -4.01512814 -0.03169838 0 0 Z " fill="#FDD05A" transform="translate(30.8603515625,306.659423828125)"/>
<path d="M0 0 C4.6868083 -0.25564409 8.15570962 -0.10329705 12.5625 1.5625 C16.73031435 3.085908 19.62741272 3.11458107 24 2 C25.34506479 1.35733139 26.68127642 0.69511894 28 0 C34.11809211 4.96900882 40.44083766 10.32251298 43 18 C42.34515625 18.38865234 41.6903125 18.77730469 41.015625 19.17773438 C38.77681934 20.8215381 38.77681934 20.8215381 38.609375 23.36914062 C38.65578125 24.28888672 38.7021875 25.20863281 38.75 26.15625 C38.7809375 27.17976563 38.811875 28.20328125 38.84375 29.2578125 C38.94641416 31.38809377 39.05053625 33.51830538 39.15625 35.6484375 C39.47159986 46.18637874 36.88616392 54.78789026 30.04296875 62.9296875 C22.6787685 70.39245258 13.98657497 75.1127706 3.375 75.1875 C2.26125 75.125625 1.1475 75.06375 0 75 C1.0209375 74.01 1.0209375 74.01 2.0625 73 C3.04515438 72.003427 4.02390821 71.00300159 5 70 C5.56589844 69.43023437 6.13179688 68.86046875 6.71484375 68.2734375 C15.38836284 59.04952005 19.54087047 47.42682882 19.24609375 34.85546875 C18.0960057 21.51079625 11.82033486 10.82503065 2 2 C1.34 1.34 0.68 0.68 0 0 Z " fill="#FB0363" transform="translate(90,15)"/>
<path d="M0 0 C9.24 0 18.48 0 28 0 C28 15.84 28 31.68 28 48 C18.76 48 9.52 48 0 48 C0 32.16 0 16.32 0 0 Z " fill="#F19202" transform="translate(406,244)"/>
<path d="M0 0 C9.24 0 18.48 0 28 0 C28 15.84 28 31.68 28 48 C18.76 48 9.52 48 0 48 C0 32.16 0 16.32 0 0 Z " fill="#F09101" transform="translate(78,244)"/>
<path d="M0 0 C12.33190562 0.79560681 20.53347042 4.90074045 29 14 C34.84016457 21.32116324 37.64937041 29.68201733 37.34765625 39.03515625 C36.27290033 48.20077136 33.37445738 56.26892962 27 63 C26.15501953 63.92232422 26.15501953 63.92232422 25.29296875 64.86328125 C19.19274456 70.86076482 10.37970348 75.27716584 1.6875 75.3125 C0.800625 75.209375 -0.08625 75.10625 -1 75 C-0.34 74.401875 0.32 73.80375 1 73.1875 C10.85477527 63.1647456 17.11148383 51.60383286 17.5625 37.375 C17.03833454 23.71836475 11.67173349 13.40307422 2 4 C1.2979894 2.68493219 0.6243351 1.35367201 0 0 Z " fill="#FA0362" transform="translate(421,15)"/>
<path d="M0 0 C0.07449251 4.44739413 0.12876257 8.8944519 0.16479492 13.34228516 C0.17982543 14.85341727 0.20025564 16.36450618 0.22631836 17.87548828 C0.26295689 20.05512187 0.27978338 22.23417575 0.29296875 24.4140625 C0.3086792 25.7232666 0.32438965 27.0324707 0.34057617 28.38134766 C-0.04023502 32.42750068 -1.04034795 36.04034795 -4 39 C-6.6662603 39.08855161 -9.30647114 39.11524673 -11.97265625 39.09765625 C-12.77029892 39.0962413 -13.56794159 39.09482635 -14.38975525 39.09336853 C-16.94737435 39.08775316 -19.50490718 39.07519812 -22.0625 39.0625 C-23.79231645 39.05748698 -25.52213426 39.05292373 -27.25195312 39.04882812 C-31.50133553 39.03777875 -35.75065312 39.02050386 -40 39 C-35.70321115 33.87196244 -31.20989567 29.04986192 -26.484375 24.31640625 C-25.78733459 23.61603745 -25.09029419 22.91566864 -24.37213135 22.19407654 C-22.91117921 20.72809617 -21.44890082 19.2634364 -19.98535156 17.80004883 C-17.73734576 15.54983333 -15.49748431 13.29171009 -13.2578125 11.03320312 C-11.83382222 9.60628278 -10.40936002 8.1798332 -8.984375 6.75390625 C-7.97815094 5.73690392 -7.97815094 5.73690392 -6.95159912 4.69935608 C-6.33045227 4.08128586 -5.70930542 3.46321564 -5.06933594 2.82641602 C-4.25042877 2.00537132 -4.25042877 2.00537132 -3.41497803 1.16773987 C-2 0 -2 0 0 0 Z " fill="#FDCF5A" transform="translate(478,190)"/>
<path d="M0 0 C4.62 0 9.24 0 14 0 C14 18.48 14 36.96 14 56 C9.38 56 4.76 56 0 56 C0 37.52 0 19.04 0 0 Z " fill="#FEA512" transform="translate(78,408)"/>
<path d="M0 0 C0.07612856 6.60189418 0.12863283 13.20367494 0.16479492 19.8059082 C0.17987182 22.05139394 0.20033653 24.29685029 0.22631836 26.54223633 C0.26274918 29.77172099 0.27973755 33.00081594 0.29296875 36.23046875 C0.30845261 37.23272995 0.32393646 38.23499115 0.33988953 39.2676239 C0.3414812 45.87474135 -0.65507754 49.20122158 -4.9375 54.3125 C-9.74355951 56.96073687 -14.62853071 56.30840972 -20 56 C-19.50467773 55.00162109 -19.00935547 54.00324219 -18.49902344 52.97460938 C-16.8038723 49.0047342 -16.78349651 45.73571619 -17.015625 41.40625 C-17.06307681 39.95507415 -17.10521184 38.50371665 -17.14257812 37.05224609 C-17.16263916 36.306745 -17.1827002 35.5612439 -17.20336914 34.79315186 C-17.61059394 14.76717952 -17.61059394 14.76717952 -10.62011719 7.25976562 C-2.45382124 0 -2.45382124 0 0 0 Z " fill="#FCC143" transform="translate(494,336)"/>
<path d="M0 0 C4.29 0 8.58 0 13 0 C13 18.48 13 36.96 13 56 C8.71 56 4.42 56 0 56 C0 37.52 0 19.04 0 0 Z " fill="#FEA613" transform="translate(407,408)"/>
<path d="M0 0 C2.97 0.33 5.94 0.66 9 1 C11.4155239 1.08519483 13.83298024 1.13041933 16.25 1.125 C17.41015625 1.12757812 18.5703125 1.13015625 19.765625 1.1328125 C23.32008128 1.07094066 23.32008128 1.07094066 28 0 C28 8.58 28 17.16 28 26 C18.76 26 9.52 26 0 26 C0 17.42 0 8.84 0 0 Z " fill="#F4A012" transform="translate(406,103)"/>
<path d="M0 0 C2.475 0.495 2.475 0.495 5 1 C7.82327818 1.09383329 10.61544941 1.13971095 13.4375 1.125 C14.17548828 1.12886719 14.91347656 1.13273437 15.67382812 1.13671875 C16.39892578 1.13542969 17.12402344 1.13414063 17.87109375 1.1328125 C18.84453735 1.13112061 18.84453735 1.13112061 19.83764648 1.12939453 C22.57944801 0.96532602 25.29066585 0.45155569 28 0 C28 8.58 28 17.16 28 26 C18.76 26 9.52 26 0 26 C0 17.42 0 8.84 0 0 Z " fill="#F59400" transform="translate(78,103)"/>
<path d="M0 0 C4.62 0 9.24 0 14 0 C14 15.18 14 30.36 14 46 C9.38 46 4.76 46 0 46 C0 30.82 0 15.64 0 0 Z " fill="#FEA512" transform="translate(78,245)"/>
<path d="M0 0 C4.29 0 8.58 0 13 0 C13 15.18 13 30.36 13 46 C8.71 46 4.42 46 0 46 C0 30.82 0 15.64 0 0 Z " fill="#FEA613" transform="translate(407,245)"/>
<path d="M0 0 C0 8.58 0 17.16 0 26 C-4.62 26 -9.24 26 -14 26 C-14 18.08 -14 10.16 -14 2 C-2.25 0 -2.25 0 0 0 Z " fill="#FD9801" transform="translate(434,103)"/>
<path d="M0 0 C4.62 0.66 9.24 1.32 14 2 C14 9.92 14 17.84 14 26 C9.38 26 4.76 26 0 26 C0 17.42 0 8.84 0 0 Z " fill="#FDA512" transform="translate(78,103)"/>
<path d="M0 0 C10.86581278 -0.092691 21.73153146 -0.16376054 32.59765911 -0.20724869 C37.64329178 -0.22812116 42.6886539 -0.25643274 47.73413086 -0.30175781 C52.60355602 -0.34522748 57.47272099 -0.36913967 62.34232521 -0.37950897 C64.1998892 -0.38689832 66.057439 -0.40132803 67.9148922 -0.42292023 C70.51738604 -0.45196935 73.11880559 -0.45595541 75.72143555 -0.45410156 C76.87266403 -0.47567322 76.87266403 -0.47567322 78.04714966 -0.49768066 C81.74948436 -0.46915475 83.81116632 -0.12163568 86.95491028 1.90338135 C89.39166046 4.4015289 89.92753409 5.34780685 90.3125 8.8125 C89.92653707 12.74932188 88.76603321 14.23396679 86 17 C83.11788698 17.96070434 81.30149956 18.10581883 78.3125 18.0625 C77.10013672 18.04896484 77.10013672 18.04896484 75.86328125 18.03515625 C75.24839844 18.02355469 74.63351562 18.01195312 74 18 C74.165 17.360625 74.33 16.72125 74.5 16.0625 C75.22775415 11.60500586 76.07017442 6.14034885 74 2 C37.37 1.505 37.37 1.505 0 1 C0 0.67 0 0.34 0 0 Z " fill="#5C5656" transform="translate(378,479)"/>
<path d="M0 0 C10.73546066 -0.06952072 21.47086773 -0.12282187 32.20650768 -0.15543652 C37.19154501 -0.17109019 42.17642829 -0.19232311 47.16137695 -0.22631836 C51.97243577 -0.2589223 56.78334644 -0.27685526 61.59450722 -0.28463173 C63.42972457 -0.29017337 65.26493386 -0.30099483 67.10008812 -0.31719017 C69.67131426 -0.33897825 72.24192877 -0.34196636 74.81323242 -0.34057617 C75.57136734 -0.351362 76.32950226 -0.36214783 77.11061096 -0.3732605 C81.59046577 -0.3470642 84.43027471 0.24833621 88 3 C90.07238152 5.96054502 90.52221632 8.43152183 90 12 C87.83312718 15.2876691 86.77159691 16.74280103 83 18 C81.27204648 18.06802967 79.54164635 18.08495645 77.8125 18.0625 C76.91144531 18.05347656 76.01039062 18.04445313 75.08203125 18.03515625 C74.39496094 18.02355469 73.70789063 18.01195312 73 18 C73.33 17.34 73.66 16.68 74 16 C75.71313862 10.86058413 75.31627948 6.26511792 74 1 C49.58 1 25.16 1 0 1 C0 0.67 0 0.34 0 0 Z " fill="#5B5555" transform="translate(50,479)"/>
<path d="M0 0 C9.68965517 -0.62068966 9.68965517 -0.62068966 14.5625 1.6875 C17.11027565 4.10462049 17.83412172 5.7602553 19 9 C16.69152056 11.33734099 14.37756659 13.66918466 12.0625 16 C11.40314453 16.66773438 10.74378906 17.33546875 10.06445312 18.0234375 C9.12182617 18.97089844 9.12182617 18.97089844 8.16015625 19.9375 C7.57886963 20.52402344 6.99758301 21.11054688 6.39868164 21.71484375 C5 23 5 23 4 23 C3.96261719 21.92621094 3.92523438 20.85242188 3.88671875 19.74609375 C3.82100888 18.3098638 3.75456332 16.87366738 3.6875 15.4375 C3.65366211 14.38079102 3.65366211 14.38079102 3.61914062 13.30273438 C3.36252691 8.24044558 2.23233598 4.55444419 0 0 Z " fill="#585252" transform="translate(474,307)"/>
<path d="M0 0 C6.04358985 -0.32248404 10.80745507 -0.54612824 16 3 C17.875 5.1875 17.875 5.1875 19 7 C17.33830526 11.30577504 14.16919694 14.09011855 10.9375 17.25 C10.38255859 17.80429688 9.82761719 18.35859375 9.25585938 18.9296875 C5.14043257 23 5.14043257 23 4 23 C3.96261719 21.92621094 3.92523438 20.85242188 3.88671875 19.74609375 C3.82100888 18.3098638 3.75456332 16.87366738 3.6875 15.4375 C3.65366211 14.38079102 3.65366211 14.38079102 3.61914062 13.30273438 C3.36252691 8.24044558 2.23233598 4.55444419 0 0 Z " fill="#585252" transform="translate(474,144)"/>
</svg>
